Geologica-Thin.ufo
<glyph name="exclam" format="2">
  <advance width="600"/>
  <unicode hex="0021"/>
  <outline>
    <contour>
      <point x="250" y="440" type="line"/>
      <point x="350" y="440" type="line"/>
      <point x="370" y="1400" type="line"/>
      <point x="230" y="1400" type="line"/>
    </contour>
    <contour>
      <point x="300" y="-30" type="curve" smooth="yes"/>
      <point x="362" y="-30"/>
      <point x="410" y="14"/>
      <point x="410" y="74" type="curve" smooth="yes"/>
      <point x="410" y="134"/>
      <point x="362" y="178"/>
      <point x="300" y="178" type="curve" smooth="yes"/>
      <point x="238" y="178"/>
      <point x="190" y="134"/>
      <point x="190" y="74" type="curve" smooth="yes"/>
      <point x="190" y="14"/>
      <point x="238" y="-30"/>
    </contour>
  </outline>
</glyph>
<glyph name="quotesingle" format="2">
  <advance width="420"/>
  <unicode hex="0027"/>
  <outline>
    <contour>
      <point x="165" y="992" type="line"/>
      <point x="255" y="992" type="line"/>
      <point x="265" y="1400" type="line"/>
      <point x="155" y="1400" type="line"/>
    </contour>
  </outline>
</glyph>
<glyph name="two" format="2">
  <advance width="1168"/>
  <unicode hex="0032"/>
  <outline>
    <contour>
      <point x="140" y="0" type="line"/>
      <point x="1038" y="0" type="line"/>
      <point x="1038" y="108" type="line"/>
      <point x="290" y="108" type="line"/>
      <point x="582" y="376" type="line" smooth="yes"/>
      <point x="920" y="688"/>
      <point x="1004" y="852"/>
      <point x="1004" y="1028" type="curve" smooth="yes"/>
      <point x="1004" y="1276"/>
      <point x="816" y="1430"/>
      <point x="548" y="1430" type="curve" smooth="yes"/>
      <point x="394" y="1430"/>
      <point x="262" y="1386"/>
      <point x="162" y="1298" type="curve"/>
      <point x="212" y="1212" type="line"/>
      <point x="284" y="1284"/>
      <point x="408" y="1322"/>
      <point x="532" y="1322" type="curve" smooth="yes"/>
      <point x="754" y="1322"/>
      <point x="890" y="1208"/>
      <point x="890" y="1026" type="curve" smooth="yes"/>
      <point x="890" y="838"/>
      <point x="748" y="670"/>
      <point x="448" y="390" type="curve" smooth="yes"/>
      <point x="140" y="102" type="line"/>
    </contour>
  </outline>
</glyph>
<glyph name="six" format="2">
  <advance width="1268"/>
  <unicode hex="0036"/>
  <outline>
    <contour>
      <point x="660" y="-30" type="curve" smooth="yes"/>
      <point x="952" y="-30"/>
      <point x="1164" y="178"/>
      <point x="1164" y="446" type="curve" smooth="yes"/>
      <point x="1164" y="709"/>
      <point x="952" y="892"/>
      <point x="684" y="892" type="curve" smooth="yes"/>
      <point x="506" y="892"/>
      <point x="352" y="801"/>
      <point x="268" y="660" type="curve"/>
      <point x="312" y="978"/>
      <point x="550" y="1284"/>
      <point x="1034" y="1330" type="curve"/>
      <point x="990" y="1430" type="line"/>
      <point x="496" y="1359"/>
      <point x="136" y="1017"/>
      <point x="136" y="546" type="curve" smooth="yes"/>
      <point x="136" y="174"/>
      <point x="356" y="-30"/>
    </contour>
    <contour>
      <point x="660" y="84" type="curve" smooth="yes"/>
      <point x="438" y="84"/>
      <point x="280" y="228"/>
      <point x="280" y="430" type="curve" smooth="yes"/>
      <point x="280" y="628"/>
      <point x="446" y="778"/>
      <point x="660" y="778" type="curve" smooth="yes"/>
      <point x="874" y="778"/>
      <point x="1040" y="628"/>
      <point x="1040" y="430" type="curve" smooth="yes"/>
      <point x="1040" y="228"/>
      <point x="882" y="84"/>
    </contour>
  </outline>
</glyph>
<glyph name="seven" format="2">
  <advance width="1076"/>
  <unicode hex="0037"/>
  <outline>
    <contour>
      <point x="200" y="0" type="line"/>
      <point x="330" y="0" type="line"/>
      <point x="968" y="1300" type="line"/>
      <point x="968" y="1400" type="line"/>
      <point x="114" y="1400" type="line"/>
      <point x="114" y="1292" type="line"/>
      <point x="838" y="1292" type="line"/>
    </contour>
  </outline>
</glyph>
<glyph name="nine" format="2">
  <advance width="1244"/>
  <unicode hex="0039"/>
  <outline>
    <contour>
      <point x="264" y="-30" type="line"/>
      <point x="752" y="42"/>
      <point x="1108" y="389"/>
      <point x="1108" y="866" type="curve" smooth="yes"/>
      <point x="1108" y="1231"/>
      <point x="893" y="1430"/>
      <point x="596" y="1430" type="curve" smooth="yes"/>
      <point x="311" y="1430"/>
      <point x="104" y="1233"/>
      <point x="104" y="978" type="curve" smooth="yes"/>
      <point x="104" y="715"/>
      <point x="311" y="532"/>
      <point x="572" y="532" type="curve" smooth="yes"/>
      <point x="745" y="532"/>
      <point x="894" y="623"/>
      <point x="976" y="764" type="curve"/>
      <point x="933" y="435"/>
      <point x="698" y="117"/>
      <point x="220" y="70" type="curve"/>
    </contour>
    <contour>
      <point x="596" y="646" type="curve" smooth="yes"/>
      <point x="389" y="646"/>
      <point x="228" y="791"/>
      <point x="228" y="982" type="curve" smooth="yes"/>
      <point x="228" y="1177"/>
      <point x="381" y="1316"/>
      <point x="596" y="1316" type="curve" smooth="yes"/>
      <point x="811" y="1316"/>
      <point x="964" y="1177"/>
      <point x="964" y="982" type="curve" smooth="yes"/>
      <point x="964" y="791"/>
      <point x="803" y="646"/>
    </contour>
  </outline>
</glyph>
<glyph name="greater" format="2">
  <advance width="1296"/>
  <unicode hex="003E"/>
  <outline>
    <contour>
      <point x="210" y="248" type="line"/>
      <point x="1116" y="618" type="line"/>
      <point x="1116" y="710" type="line"/>
      <point x="210" y="1084" type="line"/>
      <point x="168" y="982" type="line"/>
      <point x="962" y="664" type="line"/>
      <point x="168" y="350" type="line"/>
    </contour>
  </outline>
</glyph>
<glyph name="C" format="2">
  <advance width="1392"/>
  <unicode hex="0043"/>
  <anchor x="786" y="0" name="bottom"/>
  <anchor x="786" y="1400" name="top"/>
  <outline>
    <contour>
      <point x="826" y="-30" type="curve" smooth="yes"/>
      <point x="1016" y="-30"/>
      <point x="1180" y="18"/>
      <point x="1322" y="130" type="curve"/>
      <point x="1266" y="230" type="line"/>
      <point x="1146" y="124"/>
      <point x="1006" y="82"/>
      <point x="850" y="82" type="curve" smooth="yes"/>
      <point x="474" y="82"/>
      <point x="232" y="308"/>
      <point x="232" y="702" type="curve" smooth="yes"/>
      <point x="232" y="1082"/>
      <point x="472" y="1320"/>
      <point x="836" y="1320" type="curve" smooth="yes"/>
      <point x="986" y="1320"/>
      <point x="1112" y="1280"/>
      <point x="1210" y="1198" type="curve"/>
      <point x="1278" y="1292" type="line"/>
      <point x="1172" y="1380"/>
      <point x="1018" y="1430"/>
      <point x="826" y="1430" type="curve" smooth="yes"/>
      <point x="410" y="1430"/>
      <point x="112" y="1122"/>
      <point x="112" y="702" type="curve" smooth="yes"/>
      <point x="112" y="264"/>
      <point x="392" y="-30"/>
    </contour>
  </outline>
</glyph>
<glyph name="D" format="2">
  <advance width="1396"/>
  <unicode hex="0044"/>
  <anchor x="436" y="742" name="bar"/>
  <anchor x="676" y="1400" name="top"/>
  <outline>
    <contour>
      <point x="200" y="0" type="line"/>
      <point x="596" y="0" type="line" smooth="yes"/>
      <point x="994" y="0"/>
      <point x="1284" y="294"/>
      <point x="1284" y="698" type="curve" smooth="yes"/>
      <point x="1284" y="1108"/>
      <point x="994" y="1400"/>
      <point x="596" y="1400" type="curve" smooth="yes"/>
      <point x="200" y="1400" type="line"/>
    </contour>
    <contour>
      <point x="316" y="108" type="line"/>
      <point x="316" y="1292" type="line"/>
      <point x="558" y="1292" type="line" smooth="yes"/>
      <point x="926" y="1292"/>
      <point x="1164" y="1056"/>
      <point x="1164" y="698" type="curve" smooth="yes"/>
      <point x="1164" y="344"/>
      <point x="924" y="108"/>
      <point x="558" y="108" type="curve" smooth="yes"/>
    </contour>
  </outline>
</glyph>
<glyph name="F" format="2">
  <advance width="1132"/>
  <unicode hex="0046"/>
  <outline>
    <contour>
      <point x="200" y="0" type="line"/>
      <point x="316" y="0" type="line"/>
      <point x="316" y="668" type="line"/>
      <point x="948" y="668" type="line"/>
      <point x="948" y="776" type="line"/>
      <point x="316" y="776" type="line"/>
      <point x="316" y="1292" type="line"/>
      <point x="1008" y="1292" type="line"/>
      <point x="1008" y="1400" type="line"/>
      <point x="200" y="1400" type="line"/>
    </contour>
  </outline>
</glyph>
<glyph name="H" format="2">
  <advance width="1436"/>
  <unicode hex="0048"/>
  <anchor x="718" y="1400" name="top"/>
  <anchor x="120" y="1400" name="topleft"/>
  <outline>
    <contour>
      <point x="200" y="0" type="line"/>
      <point x="316" y="0" type="line"/>
      <point x="316" y="698" type="line"/>
      <point x="1120" y="698" type="line"/>
      <point x="1120" y="0" type="line"/>
      <point x="1236" y="0" type="line"/>
      <point x="1236" y="1400" type="line"/>
      <point x="1120" y="1400" type="line"/>
      <point x="1120" y="806" type="line"/>
      <point x="316" y="806" type="line"/>
      <point x="316" y="1400" type="line"/>
      <point x="200" y="1400" type="line"/>
    </contour>
  </outline>
</glyph>
<glyph name="L" format="2">
  <advance width="1054"/>
  <unicode hex="004C"/>
  <anchor x="588" y="0" name="bottom"/>
  <anchor x="316" y="1440" name="caron"/>
  <anchor x="258" y="1400" name="top"/>
  <outline>
    <contour>
      <point x="200" y="0" type="line"/>
      <point x="974" y="0" type="line"/>
      <point x="974" y="108" type="line"/>
      <point x="316" y="108" type="line"/>
      <point x="316" y="1400" type="line"/>
      <point x="200" y="1400" type="line"/>
    </contour>
  </outline>
</glyph>
<glyph name="O" format="2">
  <advance width="1676"/>
  <unicode hex="004F"/>
  <anchor x="838" y="0" name="bottom"/>
  <anchor x="1240" y="1400" name="horn"/>
  <anchor x="1050" y="0" name="ogonek"/>
  <anchor x="838" y="1400" name="top"/>
  <anchor x="152" y="1400" name="topleft"/>
  <outline>
    <contour>
      <point x="838" y="-30" type="curve" smooth="yes"/>
      <point x="1246" y="-30"/>
      <point x="1564" y="286"/>
      <point x="1564" y="700" type="curve" smooth="yes"/>
      <point x="1564" y="1108"/>
      <point x="1246" y="1430"/>
      <point x="838" y="1430" type="curve" smooth="yes"/>
      <point x="426" y="1430"/>
      <point x="112" y="1116"/>
      <point x="112" y="700" type="curve" smooth="yes"/>
      <point x="112" y="286"/>
      <point x="426" y="-30"/>
    </contour>
    <contour>
      <point x="838" y="82" type="curve" smooth="yes"/>
      <point x="502" y="82"/>
      <point x="232" y="328"/>
      <point x="232" y="700" type="curve" smooth="yes"/>
      <point x="232" y="1072"/>
      <point x="502" y="1318"/>
      <point x="838" y="1318" type="curve" smooth="yes"/>
      <point x="1174" y="1318"/>
      <point x="1444" y="1072"/>
      <point x="1444" y="700" type="curve" smooth="yes"/>
      <point x="1444" y="328"/>
      <point x="1174" y="82"/>
    </contour>
  </outline>
</glyph>
<glyph name="R" format="2">
  <advance width="1284"/>
  <unicode hex="0052"/>
  <anchor x="684" y="0" name="bottom"/>
  <anchor x="618" y="1400" name="top"/>
  <outline>
    <contour>
      <point x="200" y="0" type="line"/>
      <point x="316" y="0" type="line"/>
      <point x="316" y="614" type="line"/>
      <point x="574" y="614" type="line"/>
      <point x="1036" y="0" type="line"/>
      <point x="1184" y="0" type="line"/>
      <point x="716" y="616" type="line"/>
      <point x="968" y="640"/>
      <point x="1124" y="786"/>
      <point x="1124" y="998" type="curve" smooth="yes"/>
      <point x="1124" y="1240"/>
      <point x="958" y="1400"/>
      <point x="690" y="1400" type="curve" smooth="yes"/>
      <point x="200" y="1400" type="line"/>
    </contour>
    <contour>
      <point x="316" y="722" type="line"/>
      <point x="316" y="1292" type="line"/>
      <point x="680" y="1292" type="line" smooth="yes"/>
      <point x="904" y="1292"/>
      <point x="1008" y="1174"/>
      <point x="1008" y="998" type="curve" smooth="yes"/>
      <point x="1008" y="828"/>
      <point x="878" y="722"/>
      <point x="656" y="722" type="curve" smooth="yes"/>
    </contour>
  </outline>
</glyph>
<glyph name="U" format="2">
  <advance width="1444"/>
  <unicode hex="0055"/>
  <anchor x="722" y="0" name="bottom"/>
  <anchor x="1254" y="1400" name="horn"/>
  <anchor x="1038" y="0" name="ogonek"/>
  <anchor x="722" y="1400" name="top"/>
  <outline>
    <contour>
      <point x="722" y="-30" type="curve" smooth="yes"/>
      <point x="1078" y="-30"/>
      <point x="1254" y="218"/>
      <point x="1254" y="516" type="curve" smooth="yes"/>
      <point x="1254" y="1400" type="line"/>
      <point x="1138" y="1400" type="line"/>
      <point x="1138" y="532" type="line" smooth="yes"/>
      <point x="1138" y="230"/>
      <point x="974" y="82"/>
      <point x="722" y="82" type="curve" smooth="yes"/>
      <point x="470" y="82"/>
      <point x="306" y="230"/>
      <point x="306" y="532" type="curve" smooth="yes"/>
      <point x="306" y="1400" type="line"/>
      <point x="190" y="1400" type="line"/>
      <point x="190" y="516" type="line" smooth="yes"/>
      <point x="190" y="218"/>
      <point x="366" y="-30"/>
    </contour>
  </outline>
</glyph>
<glyph name="Z" format="2">
  <advance width="1156"/>
  <unicode hex="005A"/>
  <anchor x="586" y="1400" name="top"/>
  <outline>
    <contour>
      <point x="106" y="0" type="line"/>
      <point x="1062" y="0" type="line"/>
      <point x="1062" y="108" type="line"/>
      <point x="246" y="108" type="line"/>
      <point x="1054" y="1302" type="line"/>
      <point x="1054" y="1400" type="line"/>
      <point x="128" y="1400" type="line"/>
      <point x="128" y="1292" type="line"/>
      <point x="916" y="1292" type="line"/>
      <point x="106" y="98" type="line"/>
    </contour>
  </outline>
</glyph>
<glyph name="bracketright" format="2">
  <advance width="666"/>
  <unicode hex="005D"/>
  <outline>
    <contour>
      <point x="442" y="-220" type="line"/>
      <point x="442" y="1600" type="line"/>
      <point x="134" y="1600" type="line"/>
      <point x="134" y="1504" type="line"/>
      <point x="342" y="1504" type="line"/>
      <point x="342" y="-124" type="line"/>
      <point x="134" y="-124" type="line"/>
      <point x="134" y="-220" type="line"/>
    </contour>
  </outline>
</glyph>
<glyph name="c" format="2">
  <advance width="990"/>
  <unicode hex="0063"/>
  <anchor x="554" y="0" name="bottom"/>
  <anchor x="566" y="960" name="top"/>
  <outline>
    <contour>
      <point x="594" y="-30" type="curve" smooth="yes"/>
      <point x="718" y="-30"/>
      <point x="828" y="14"/>
      <point x="926" y="88" type="curve"/>
      <point x="850" y="174" type="line"/>
      <point x="800" y="120"/>
      <point x="704" y="78"/>
      <point x="600" y="78" type="curve" smooth="yes"/>
      <point x="354" y="78"/>
      <point x="200" y="230"/>
      <point x="200" y="482" type="curve" smooth="yes"/>
      <point x="200" y="734"/>
      <point x="356" y="882"/>
      <point x="602" y="882" type="curve" smooth="yes"/>
      <point x="694" y="882"/>
      <point x="778" y="856"/>
      <point x="836" y="808" type="curve"/>
      <point x="904" y="900" type="line"/>
      <point x="818" y="962"/>
      <point x="724" y="990"/>
      <point x="610" y="990" type="curve" smooth="yes"/>
      <point x="302" y="990"/>
      <point x="80" y="778"/>
      <point x="80" y="480" type="curve" smooth="yes"/>
      <point x="80" y="186"/>
      <point x="292" y="-30"/>
    </contour>
  </outline>
</glyph>
<glyph name="f" format="2">
  <advance width="714"/>
  <unicode hex="0066"/>
  <outline>
    <contour>
      <point x="280" y="0" type="line"/>
      <point x="390" y="0" type="line"/>
      <point x="390" y="856" type="line"/>
      <point x="660" y="856" type="line"/>
      <point x="660" y="960" type="line"/>
      <point x="390" y="960" type="line"/>
      <point x="390" y="1190" type="line" smooth="yes"/>
      <point x="390" y="1320"/>
      <point x="458" y="1362"/>
      <point x="550" y="1362" type="curve" smooth="yes"/>
      <point x="584" y="1362"/>
      <point x="622" y="1354"/>
      <point x="662" y="1334" type="curve"/>
      <point x="694" y="1432" type="line"/>
      <point x="662" y="1452"/>
      <point x="614" y="1470"/>
      <point x="548" y="1470" type="curve" smooth="yes"/>
      <point x="386" y="1470"/>
      <point x="280" y="1368"/>
      <point x="280" y="1192" type="curve" smooth="yes"/>
    </contour>
    <contour>
      <point x="60" y="856" type="line"/>
      <point x="306" y="856" type="line"/>
      <point x="306" y="960" type="line"/>
      <point x="60" y="960" type="line"/>
    </contour>
  </outline>
</glyph>
<glyph name="g" format="2">
  <advance width="1168"/>
  <unicode hex="0067"/>
  <anchor x="572" y="960" name="top"/>
  <outline>
    <contour>
      <point x="552" y="-450" type="curve" smooth="yes"/>
      <point x="850" y="-450"/>
      <point x="1056" y="-310"/>
      <point x="1056" y="-130" type="curve" smooth="yes"/>
      <point x="1056" y="30"/>
      <point x="924" y="110"/>
      <point x="676" y="128" type="curve" smooth="yes"/>
      <point x="512" y="140" type="line" smooth="yes"/>
      <point x="414" y="148"/>
      <point x="340" y="164"/>
      <point x="340" y="224" type="curve" smooth="yes"/>
      <point x="340" y="290"/>
      <point x="436" y="330"/>
      <point x="570" y="330" type="curve"/>
      <point x="532" y="398" type="line"/>
      <point x="344" y="376"/>
      <point x="224" y="300"/>
      <point x="224" y="200" type="curve" smooth="yes"/>
      <point x="224" y="138"/>
      <point x="264" y="94"/>
      <point x="344" y="58" type="curve"/>
      <point x="174" y="24"/>
      <point x="90" y="-60"/>
      <point x="90" y="-168" type="curve" smooth="yes"/>
      <point x="90" y="-338"/>
      <point x="264" y="-450"/>
    </contour>
    <contour>
      <point x="550" y="-352" type="curve" smooth="yes"/>
      <point x="340" y="-352"/>
      <point x="214" y="-272"/>
      <point x="214" y="-156" type="curve" smooth="yes"/>
      <point x="214" y="-56"/>
      <point x="310" y="14"/>
      <point x="472" y="24" type="curve"/>
      <point x="642" y="12" type="line" smooth="yes"/>
      <point x="834" y="-2"/>
      <point x="932" y="-54"/>
      <point x="932" y="-146" type="curve" smooth="yes"/>
      <point x="932" y="-266"/>
      <point x="788" y="-352"/>
    </contour>
    <contour>
      <point x="550" y="310" type="curve" smooth="yes"/>
      <point x="776" y="310"/>
      <point x="960" y="460"/>
      <point x="960" y="650" type="curve" smooth="yes"/>
      <point x="960" y="840"/>
      <point x="776" y="990"/>
      <point x="550" y="990" type="curve" smooth="yes"/>
      <point x="324" y="990"/>
      <point x="140" y="840"/>
      <point x="140" y="650" type="curve" smooth="yes"/>
      <point x="140" y="460"/>
      <point x="324" y="310"/>
    </contour>
    <contour>
      <point x="550" y="418" type="curve" smooth="yes"/>
      <point x="380" y="418"/>
      <point x="266" y="512"/>
      <point x="266" y="650" type="curve" smooth="yes"/>
      <point x="266" y="788"/>
      <point x="380" y="882"/>
      <point x="550" y="882" type="curve" smooth="yes"/>
      <point x="720" y="882"/>
      <point x="834" y="788"/>
      <point x="834" y="650" type="curve" smooth="yes"/>
      <point x="834" y="512"/>
      <point x="720" y="418"/>
    </contour>
    <contour>
      <point x="706" y="856" type="line"/>
      <point x="1120" y="856" type="line"/>
      <point x="1122" y="960" type="line"/>
      <point x="666" y="950" type="line"/>
    </contour>
  </outline>
</glyph>
<glyph name="k" format="2">
  <advance width="1026"/>
  <unicode hex="006B"/>
  <anchor x="556" y="0" name="bottom"/>
  <outline>
    <contour>
      <point x="170" y="0" type="line"/>
      <point x="282" y="0" type="line"/>
      <point x="282" y="356" type="line"/>
      <point x="470" y="542" type="line"/>
      <point x="826" y="0" type="line"/>
      <point x="966" y="0" type="line"/>
      <point x="552" y="614" type="line"/>
      <point x="894" y="960" type="line"/>
      <point x="754" y="960" type="line"/>
      <point x="282" y="494" type="line"/>
      <point x="282" y="1440" type="line"/>
      <point x="170" y="1440" type="line"/>
    </contour>
  </outline>
</glyph>
<glyph name="q" format="2">
  <advance width="1254"/>
  <unicode hex="0071"/>
  <outline>
    <contour>
      <point x="972" y="-420" type="line"/>
      <point x="1084" y="-420" type="line"/>
      <point x="1084" y="960" type="line"/>
      <point x="972" y="960" type="line"/>
      <point x="972" y="748" type="line"/>
      <point x="990" y="774" type="line"/>
      <point x="904" y="896"/>
      <point x="784" y="990"/>
      <point x="566" y="990" type="curve" smooth="yes"/>
      <point x="276" y="990"/>
      <point x="80" y="758"/>
      <point x="80" y="480" type="curve" smooth="yes"/>
      <point x="80" y="202"/>
      <point x="276" y="-30"/>
      <point x="566" y="-30" type="curve" smooth="yes"/>
      <point x="770" y="-30"/>
      <point x="906" y="62"/>
      <point x="990" y="194" type="curve"/>
      <point x="972" y="218" type="line"/>
    </contour>
    <contour>
      <point x="586" y="78" type="curve" smooth="yes"/>
      <point x="360" y="78"/>
      <point x="200" y="234"/>
      <point x="200" y="480" type="curve" smooth="yes"/>
      <point x="200" y="726"/>
      <point x="360" y="882"/>
      <point x="586" y="882" type="curve" smooth="yes"/>
      <point x="812" y="882"/>
      <point x="972" y="726"/>
      <point x="972" y="480" type="curve" smooth="yes"/>
      <point x="972" y="234"/>
      <point x="812" y="78"/>
    </contour>
  </outline>
</glyph>
<glyph name="t" format="2">
  <advance width="820"/>
  <unicode hex="0074"/>
  <anchor x="392" y="520" name="bar"/>
  <anchor x="514" y="0" name="bottom"/>
  <anchor x="392" y="1440" name="caron"/>
  <outline>
    <contour>
      <point x="554" y="-30" type="curve" smooth="yes"/>
      <point x="612" y="-30"/>
      <point x="674" y="-16"/>
      <point x="726" y="10" type="curve"/>
      <point x="690" y="108" type="line"/>
      <point x="658" y="92"/>
      <point x="616" y="80"/>
      <point x="565" y="80" type="curve" smooth="yes"/>
      <point x="448" y="80"/>
      <point x="392" y="140"/>
      <point x="392" y="310" type="curve" smooth="yes"/>
      <point x="392" y="856" type="line"/>
      <point x="702" y="856" type="line"/>
      <point x="702" y="960" type="line"/>
      <point x="392" y="960" type="line"/>
      <point x="392" y="1246" type="line"/>
      <point x="280" y="1246" type="line"/>
      <point x="280" y="270" type="line" smooth="yes"/>
      <point x="280" y="62"/>
      <point x="392" y="-30"/>
    </contour>
    <contour>
      <point x="42" y="856" type="line"/>
      <point x="306" y="856" type="line"/>
      <point x="306" y="960" type="line"/>
      <point x="42" y="960" type="line"/>
    </contour>
  </outline>
</glyph>
<glyph name="v" format="2">
  <advance width="966"/>
  <unicode hex="0076"/>
  <outline>
    <contour>
      <point x="422" y="0" type="line"/>
      <point x="544" y="0" type="line"/>
      <point x="924" y="960" type="line"/>
      <point x="798" y="960" type="line"/>
      <point x="472" y="94" type="line"/>
      <point x="502" y="94" type="line"/>
      <point x="172" y="960" type="line"/>
      <point x="42" y="960" type="line"/>
    </contour>
  </outline>
</glyph>
<glyph name="ordfeminine" format="2">
  <advance width="770"/>
  <unicode hex="00AA"/>
  <anchor x="368" y="722" name="bottom"/>
  <anchor x="646" y="722" name="ogonek"/>
  <anchor x="368" y="1354" name="top"/>
  <outline>
    <contour>
      <point x="318" y="702" type="curve" smooth="yes"/>
      <point x="412" y="702"/>
      <point x="500" y="734"/>
      <point x="548" y="802" type="curve"/>
      <point x="548" y="722" type="line"/>
      <point x="646" y="722" type="line"/>
      <point x="646" y="1138" type="line" smooth="yes"/>
      <point x="646" y="1296"/>
      <point x="550" y="1380"/>
      <point x="370" y="1380" type="curve" smooth="yes"/>
      <point x="282" y="1380"/>
      <point x="186" y="1356"/>
      <point x="102" y="1286" type="curve"/>
      <point x="112" y="1350" type="line"/>
      <point x="162" y="1226" type="line"/>
      <point x="220" y="1268"/>
      <point x="286" y="1290"/>
      <point x="360" y="1290" type="curve" smooth="yes"/>
      <point x="480" y="1290"/>
      <point x="544" y="1232"/>
      <point x="544" y="1138" type="curve" smooth="yes"/>
      <point x="544" y="954" type="line" smooth="yes"/>
      <point x="544" y="860"/>
      <point x="456" y="790"/>
      <point x="340" y="790" type="curve" smooth="yes"/>
      <point x="248" y="790"/>
      <point x="190" y="832"/>
      <point x="190" y="904" type="curve" smooth="yes"/>
      <point x="190" y="992"/>
      <point x="300" y="1050"/>
      <point x="580" y="1014" type="curve"/>
      <point x="576" y="1094" type="line"/>
      <point x="224" y="1130"/>
      <point x="92" y="1034"/>
      <point x="92" y="902" type="curve" smooth="yes"/>
      <point x="92" y="780"/>
      <point x="182" y="702"/>
    </contour>
  </outline>
</glyph>
<glyph name="twosuperior" format="2">
  <advance width="824"/>
  <unicode hex="00B2"/>
  <outline>
    <contour>
      <point x="108" y="722" type="line"/>
      <point x="722" y="722" type="line"/>
      <point x="722" y="814" type="line"/>
      <point x="244" y="814" type="line"/>
      <point x="420" y="970" type="line" smooth="yes"/>
      <point x="618" y="1146"/>
      <point x="700" y="1256"/>
      <point x="700" y="1386" type="curve" smooth="yes"/>
      <point x="700" y="1548"/>
      <point x="572" y="1652"/>
      <point x="388" y="1652" type="curve" smooth="yes"/>
      <point x="282" y="1652"/>
      <point x="188" y="1620"/>
      <point x="118" y="1559" type="curve"/>
      <point x="160" y="1482" type="line"/>
      <point x="210" y="1532"/>
      <point x="292" y="1558"/>
      <point x="374" y="1558" type="curve" smooth="yes"/>
      <point x="514" y="1558"/>
      <point x="600" y="1490"/>
      <point x="600" y="1380" type="curve" smooth="yes"/>
      <point x="600" y="1266"/>
      <point x="512" y="1166"/>
      <point x="314" y="988" type="curve" smooth="yes"/>
      <point x="108" y="804" type="line"/>
    </contour>
  </outline>
</glyph>
<glyph name="threesuperior" format="2">
  <advance width="816"/>
  <unicode hex="00B3"/>
  <outline>
    <contour>
      <point x="372" y="702" type="curve" smooth="yes"/>
      <point x="568" y="702"/>
      <point x="708" y="816"/>
      <point x="708" y="988" type="curve" smooth="yes"/>
      <point x="708" y="1174"/>
      <point x="542" y="1264"/>
      <point x="352" y="1254" type="curve"/>
      <point x="666" y="1548" type="line"/>
      <point x="666" y="1632" type="line"/>
      <point x="88" y="1632" type="line"/>
      <point x="88" y="1540" type="line"/>
      <point x="532" y="1540" type="line"/>
      <point x="208" y="1240" type="line"/>
      <point x="242" y="1168" type="line"/>
      <point x="280" y="1176"/>
      <point x="320" y="1180"/>
      <point x="354" y="1180" type="curve" smooth="yes"/>
      <point x="504" y="1180"/>
      <point x="602" y="1110"/>
      <point x="602" y="992" type="curve" smooth="yes"/>
      <point x="602" y="874"/>
      <point x="510" y="798"/>
      <point x="366" y="798" type="curve" smooth="yes"/>
      <point x="280" y="798"/>
      <point x="184" y="828"/>
      <point x="122" y="878" type="curve"/>
      <point x="83" y="790" type="line"/>
      <point x="142" y="740"/>
      <point x="255" y="702"/>
    </contour>
  </outline>
</glyph>
<glyph name="onesuperior" format="2">
  <advance width="616"/>
  <unicode hex="00B9"/>
  <outline>
    <contour>
      <point x="338" y="722" type="line"/>
      <point x="436" y="722" type="line"/>
      <point x="436" y="1652" type="line"/>
      <point x="428" y="1652" type="line"/>
      <point x="48" y="1512" type="line"/>
      <point x="76" y="1432" type="line"/>
      <point x="338" y="1526" type="line"/>
    </contour>
  </outline>
</glyph>
<glyph name="Thorn" format="2">
  <advance width="1230"/>
  <unicode hex="00DE"/>
  <outline>
    <contour>
      <point x="200" y="0" type="line"/>
      <point x="316" y="0" type="line"/>
      <point x="316" y="322" type="line"/>
      <point x="670" y="322" type="line" smooth="yes"/>
      <point x="978" y="322"/>
      <point x="1150" y="460"/>
      <point x="1150" y="718" type="curve" smooth="yes"/>
      <point x="1150" y="968"/>
      <point x="956" y="1118"/>
      <point x="672" y="1118" type="curve" smooth="yes"/>
      <point x="316" y="1118" type="line"/>
      <point x="316" y="1400" type="line"/>
      <point x="200" y="1400" type="line"/>
    </contour>
    <contour>
      <point x="316" y="430" type="line"/>
      <point x="316" y="1010" type="line"/>
      <point x="686" y="1010" type="line" smooth="yes"/>
      <point x="902" y="1010"/>
      <point x="1034" y="894"/>
      <point x="1034" y="714" type="curve" smooth="yes"/>
      <point x="1034" y="528"/>
      <point x="906" y="430"/>
      <point x="684" y="430" type="curve" smooth="yes"/>
    </contour>
  </outline>
</glyph>
<glyph name="ae" format="2">
  <advance width="1768"/>
  <unicode hex="00E6"/>
  <anchor x="851" y="960" name="top"/>
  <outline>
    <contour>
      <point x="433" y="-30" type="curve" smooth="yes"/>
      <point x="653" y="-30"/>
      <point x="811" y="110"/>
      <point x="845" y="274" type="curve"/>
      <point x="823" y="274" type="line"/>
      <point x="895" y="84"/>
      <point x="1063" y="-30"/>
      <point x="1277" y="-30" type="curve" smooth="yes"/>
      <point x="1397" y="-30"/>
      <point x="1527" y="8"/>
      <point x="1621" y="90" type="curve"/>
      <point x="1555" y="184" type="line"/>
      <point x="1489" y="116"/>
      <point x="1385" y="78"/>
      <point x="1291" y="78" type="curve" smooth="yes"/>
      <point x="1047" y="78"/>
      <point x="899" y="234"/>
      <point x="911" y="468" type="curve"/>
      <point x="1685" y="468" type="line"/>
      <point x="1711" y="764"/>
      <point x="1541" y="990"/>
      <point x="1259" y="990" type="curve" smooth="yes"/>
      <point x="1083" y="990"/>
      <point x="935" y="898"/>
      <point x="855" y="750" type="curve"/>
      <point x="881" y="746" type="line"/>
      <point x="847" y="910"/>
      <point x="717" y="1000"/>
      <point x="497" y="1000" type="curve" smooth="yes"/>
      <point x="391" y="1000"/>
      <point x="267" y="974"/>
      <point x="153" y="892" type="curve"/>
      <point x="195" y="792" type="line"/>
      <point x="293" y="864"/>
      <point x="393" y="892"/>
      <point x="495" y="892" type="curve" smooth="yes"/>
      <point x="673" y="892"/>
      <point x="779" y="798"/>
      <point x="779" y="644" type="curve" smooth="yes"/>
      <point x="779" y="390" type="line" smooth="yes"/>
      <point x="779" y="194"/>
      <point x="637" y="78"/>
      <point x="449" y="78" type="curve" smooth="yes"/>
      <point x="299" y="78"/>
      <point x="211" y="150"/>
      <point x="211" y="270" type="curve" smooth="yes"/>
      <point x="211" y="404"/>
      <point x="359" y="516"/>
      <point x="827" y="458" type="curve"/>
      <point x="823" y="558" type="line"/>
      <point x="289" y="618"/>
      <point x="99" y="468"/>
      <point x="99" y="270" type="curve" smooth="yes"/>
      <point x="99" y="90"/>
      <point x="223" y="-30"/>
    </contour>
    <contour>
      <point x="915" y="572" type="line"/>
      <point x="939" y="768"/>
      <point x="1069" y="882"/>
      <point x="1259" y="882" type="curve" smooth="yes"/>
      <point x="1455" y="882"/>
      <point x="1555" y="768"/>
      <point x="1565" y="572" type="curve"/>
    </contour>
  </outline>
</glyph>
<glyph name="oslash" format="2">
  <advance width="1172"/>
  <unicode hex="00F8"/>
  <anchor x="586" y="960" name="top"/>
  <outline>
    <contour>
      <point x="214" y="-50" type="line"/>
      <point x="300" y="56" type="line"/>
      <point x="380" y="2"/>
      <point x="478" y="-30"/>
      <point x="586" y="-30" type="curve" smooth="yes"/>
      <point x="876" y="-30"/>
      <point x="1092" y="202"/>
      <point x="1092" y="480" type="curve" smooth="yes"/>
      <point x="1092" y="622"/>
      <point x="1036" y="750"/>
      <point x="944" y="844" type="curve"/>
      <point x="1030" y="950" type="line"/>
      <point x="958" y="1010" type="line"/>
      <point x="872" y="904" type="line"/>
      <point x="792" y="958"/>
      <point x="694" y="990"/>
      <point x="586" y="990" type="curve" smooth="yes"/>
      <point x="296" y="990"/>
      <point x="80" y="758"/>
      <point x="80" y="480" type="curve" smooth="yes"/>
      <point x="80" y="338"/>
      <point x="136" y="210"/>
      <point x="228" y="116" type="curve"/>
      <point x="142" y="10" type="line"/>
    </contour>
    <contour>
      <point x="296" y="200" type="line"/>
      <point x="236" y="268"/>
      <point x="200" y="364"/>
      <point x="200" y="480" type="curve" smooth="yes"/>
      <point x="200" y="726"/>
      <point x="360" y="882"/>
      <point x="586" y="882" type="curve" smooth="yes"/>
      <point x="670" y="882"/>
      <point x="744" y="860"/>
      <point x="804" y="822" type="curve"/>
    </contour>
    <contour>
      <point x="586" y="78" type="curve" smooth="yes"/>
      <point x="502" y="78"/>
      <point x="428" y="100"/>
      <point x="368" y="138" type="curve"/>
      <point x="876" y="760" type="line"/>
      <point x="936" y="692"/>
      <point x="972" y="596"/>
      <point x="972" y="480" type="curve" smooth="yes"/>
      <point x="972" y="234"/>
      <point x="812" y="78"/>
    </contour>
  </outline>
</glyph>
<glyph name="thorn" format="2">
  <advance width="1254"/>
  <unicode hex="00FE"/>
  <outline>
    <contour>
      <point x="170" y="-420" type="line"/>
      <point x="282" y="-420" type="line"/>
      <point x="282" y="168" type="line"/>
      <point x="366" y="50"/>
      <point x="498" y="-30"/>
      <point x="688" y="-30" type="curve" smooth="yes"/>
      <point x="978" y="-30"/>
      <point x="1174" y="202"/>
      <point x="1174" y="480" type="curve" smooth="yes"/>
      <point x="1174" y="758"/>
      <point x="978" y="990"/>
      <point x="688" y="990" type="curve" smooth="yes"/>
      <point x="498" y="990"/>
      <point x="366" y="902"/>
      <point x="282" y="784" type="curve"/>
      <point x="282" y="1440" type="line"/>
      <point x="170" y="1440" type="line"/>
    </contour>
    <contour>
      <point x="668" y="78" type="curve" smooth="yes"/>
      <point x="442" y="78"/>
      <point x="282" y="234"/>
      <point x="282" y="480" type="curve" smooth="yes"/>
      <point x="282" y="726"/>
      <point x="442" y="882"/>
      <point x="668" y="882" type="curve" smooth="yes"/>
      <point x="894" y="882"/>
      <point x="1054" y="726"/>
      <point x="1054" y="480" type="curve" smooth="yes"/>
      <point x="1054" y="234"/>
      <point x="894" y="78"/>
    </contour>
  </outline>
</glyph>
<glyph name="dcroat" format="2">
  <advance width="1254"/>
  <unicode hex="0111"/>
  <anchor x="972" y="1204" name="bar"/>
  <anchor x="1084" y="1440" name="caron"/>
  <outline>
    <contour>
      <point x="602" y="1152" type="line"/>
      <point x="1222" y="1152" type="line"/>
      <point x="1222" y="1256" type="line"/>
      <point x="602" y="1256" type="line"/>
    </contour>
    <component base="d"/>
  </outline>
</glyph>
<glyph name="eogonek" format="2">
  <advance width="1101"/>
  <unicode hex="0119"/>
  <anchor x="556" y="0" name="bottom"/>
  <anchor x="880" y="0" name="ogonek"/>
  <anchor x="572" y="960" name="top"/>
  <outline>
    <contour>
      <point x="590" y="-30" type="curve" smooth="yes"/>
      <point x="715" y="-30"/>
      <point x="854" y="7"/>
      <point x="953" y="90" type="curve"/>
      <point x="888" y="184" type="line"/>
      <point x="816" y="116"/>
      <point x="706" y="78"/>
      <point x="604" y="78" type="curve" smooth="yes"/>
      <point x="348" y="78"/>
      <point x="192" y="234"/>
      <point x="204" y="468" type="curve"/>
      <point x="1018" y="468" type="line"/>
      <point x="1046" y="764"/>
      <point x="868" y="990"/>
      <point x="572" y="990" type="curve" smooth="yes"/>
      <point x="292" y="990"/>
      <point x="80" y="770"/>
      <point x="80" y="476" type="curve" smooth="yes"/>
      <point x="80" y="174"/>
      <point x="290" y="-30"/>
    </contour>
    <contour>
      <point x="208" y="572" type="line"/>
      <point x="230" y="768"/>
      <point x="370" y="882"/>
      <point x="572" y="882" type="curve" smooth="yes"/>
      <point x="780" y="882"/>
      <point x="890" y="768"/>
      <point x="898" y="572" type="curve"/>
    </contour>
    <contour>
      <point x="720" y="-450" type="curve" smooth="yes"/>
      <point x="776" y="-450"/>
      <point x="833" y="-435"/>
      <point x="882" y="-409" type="curve"/>
      <point x="840" y="-313" type="line"/>
      <point x="811" y="-329"/>
      <point x="775" y="-340"/>
      <point x="736" y="-340" type="curve" smooth="yes"/>
      <point x="662" y="-340"/>
      <point x="638" y="-291"/>
      <point x="640" y="-229" type="curve" smooth="yes"/>
      <point x="644" y="-105"/>
      <point x="740" y="-38"/>
      <point x="853" y="27" type="curve"/>
      <point x="816" y="90" type="line"/>
      <point x="670" y="24"/>
      <point x="524" y="-86"/>
      <point x="520" y="-255" type="curve" smooth="yes"/>
      <point x="518" y="-362"/>
      <point x="588" y="-450"/>
    </contour>
  </outline>
</glyph>
<glyph name="idotless" format="2">
  <advance width="452"/>
  <unicode hex="0131"/>
  <anchor x="226" y="0" name="bottom"/>
  <anchor x="281" y="0" name="ogonek"/>
  <anchor x="226" y="960" name="top"/>
  <outline>
    <contour>
      <point x="170" y="0" type="line"/>
      <point x="282" y="0" type="line"/>
      <point x="282" y="960" type="line"/>
      <point x="170" y="960" type="line"/>
    </contour>
  </outline>
</glyph>
<glyph name="Lslash" format="2">
  <advance width="1094"/>
  <unicode hex="0141"/>
  <anchor x="628" y="0" name="bottom"/>
  <anchor x="356" y="1440" name="caron"/>
  <anchor x="298" y="1400" name="top"/>
  <outline>
    <contour>
      <point x="82" y="516" type="line"/>
      <point x="294" y="614" type="line"/>
      <point x="294" y="604" type="line"/>
      <point x="927" y="900" type="line"/>
      <point x="890" y="980" type="line"/>
      <point x="294" y="702" type="line"/>
      <point x="294" y="712" type="line"/>
      <point x="45" y="596" type="line"/>
    </contour>
    <component base="L" xOffset="40"/>
  </outline>
</glyph>
<glyph name="lslash" format="2">
  <advance width="592"/>
  <unicode hex="0142"/>
  <anchor x="296" y="0" name="bottom"/>
  <anchor x="352" y="1440" name="caron"/>
  <anchor x="296" y="1440" name="top"/>
  <outline>
    <contour>
      <point x="84" y="503" type="line"/>
      <point x="296" y="602" type="line"/>
      <point x="296" y="592" type="line"/>
      <point x="545" y="708" type="line"/>
      <point x="507" y="789" type="line"/>
      <point x="296" y="690" type="line"/>
      <point x="296" y="700" type="line"/>
      <point x="47" y="584" type="line"/>
    </contour>
    <component base="l" xOffset="70"/>
  </outline>
</glyph>
<glyph name="oe" format="2">
  <advance width="1993"/>
  <unicode hex="0153"/>
  <outline>
    <contour>
      <point x="586" y="-30" type="curve" smooth="yes"/>
      <point x="876" y="-30"/>
      <point x="1092" y="202"/>
      <point x="1092" y="480" type="curve" smooth="yes"/>
      <point x="1092" y="758"/>
      <point x="876" y="990"/>
      <point x="586" y="990" type="curve" smooth="yes"/>
      <point x="296" y="990"/>
      <point x="80" y="758"/>
      <point x="80" y="480" type="curve" smooth="yes"/>
      <point x="80" y="202"/>
      <point x="296" y="-30"/>
    </contour>
    <contour>
      <point x="586" y="78" type="curve" smooth="yes"/>
      <point x="360" y="78"/>
      <point x="200" y="234"/>
      <point x="200" y="480" type="curve" smooth="yes"/>
      <point x="200" y="726"/>
      <point x="360" y="882"/>
      <point x="586" y="882" type="curve" smooth="yes"/>
      <point x="812" y="882"/>
      <point x="972" y="726"/>
      <point x="972" y="480" type="curve" smooth="yes"/>
      <point x="972" y="234"/>
      <point x="812" y="78"/>
    </contour>
    <contour>
      <point x="1482" y="-30" type="curve" smooth="yes"/>
      <point x="1608" y="-30"/>
      <point x="1746" y="8"/>
      <point x="1846" y="90" type="curve"/>
      <point x="1780" y="184" type="line"/>
      <point x="1708" y="116"/>
      <point x="1598" y="78"/>
      <point x="1496" y="78" type="curve" smooth="yes"/>
      <point x="1240" y="78"/>
      <point x="1084" y="234"/>
      <point x="1096" y="468" type="curve"/>
      <point x="1910" y="468" type="line"/>
      <point x="1938" y="764"/>
      <point x="1760" y="990"/>
      <point x="1464" y="990" type="curve" smooth="yes"/>
      <point x="1184" y="990"/>
      <point x="972" y="770"/>
      <point x="972" y="476" type="curve" smooth="yes"/>
      <point x="972" y="174"/>
      <point x="1182" y="-30"/>
    </contour>
    <contour>
      <point x="1100" y="572" type="line"/>
      <point x="1124" y="768"/>
      <point x="1262" y="882"/>
      <point x="1464" y="882" type="curve" smooth="yes"/>
      <point x="1672" y="882"/>
      <point x="1780" y="768"/>
      <point x="1790" y="572" type="curve"/>
    </contour>
  </outline>
</glyph>
<glyph name="Uogonek" format="2">
  <advance width="1444"/>
  <unicode hex="0172"/>
  <anchor x="722" y="1400" name="top"/>
  <outline>
    <contour>
      <point x="878" y="-450" type="curve" smooth="yes"/>
      <point x="934" y="-450"/>
      <point x="991" y="-435"/>
      <point x="1040" y="-409" type="curve"/>
      <point x="998" y="-313" type="line"/>
      <point x="969" y="-329"/>
      <point x="933" y="-340"/>
      <point x="894" y="-340" type="curve" smooth="yes"/>
      <point x="820" y="-340"/>
      <point x="796" y="-291"/>
      <point x="798" y="-229" type="curve" smooth="yes"/>
      <point x="802" y="-109"/>
      <point x="881" y="-28"/>
      <point x="996" y="33" type="curve" smooth="yes"/>
      <point x="1168" y="124"/>
      <point x="1254" y="308"/>
      <point x="1254" y="516" type="curve" smooth="yes"/>
      <point x="1254" y="1400" type="line"/>
      <point x="1138" y="1400" type="line"/>
      <point x="1138" y="532" type="line" smooth="yes"/>
      <point x="1138" y="230"/>
      <point x="974" y="82"/>
      <point x="722" y="82" type="curve" smooth="yes"/>
      <point x="470" y="82"/>
      <point x="306" y="230"/>
      <point x="306" y="532" type="curve" smooth="yes"/>
      <point x="306" y="1400" type="line"/>
      <point x="190" y="1400" type="line"/>
      <point x="190" y="516" type="line" smooth="yes"/>
      <point x="190" y="160"/>
      <point x="416" y="-46"/>
      <point x="782" y="-28" type="curve"/>
      <point x="721" y="-90"/>
      <point x="680" y="-164"/>
      <point x="678" y="-255" type="curve" smooth="yes"/>
      <point x="676" y="-362"/>
      <point x="746" y="-450"/>
    </contour>
  </outline>
</glyph>
<glyph name="uogonek" format="2">
  <advance width="1142"/>
  <unicode hex="0173"/>
  <anchor x="554" y="0" name="bottom"/>
  <anchor x="972" y="0" name="descender"/>
  <anchor x="972" y="960" name="horn"/>
  <anchor x="972" y="0" name="ogonek"/>
  <anchor x="562" y="960" name="top"/>
  <outline>
    <contour>
      <point x="812" y="-450" type="curve" smooth="yes"/>
      <point x="868" y="-450"/>
      <point x="925" y="-435"/>
      <point x="974" y="-409" type="curve"/>
      <point x="932" y="-313" type="line"/>
      <point x="903" y="-329"/>
      <point x="867" y="-340"/>
      <point x="828" y="-340" type="curve" smooth="yes"/>
      <point x="754" y="-340"/>
      <point x="730" y="-291"/>
      <point x="732" y="-229" type="curve" smooth="yes"/>
      <point x="736" y="-105"/>
      <point x="832" y="-38"/>
      <point x="972" y="0" type="curve"/>
      <point x="937.0" y="59.5" type="line"/>
      <point x="767.0" y="18.5"/>
      <point x="616.0" y="-89.5"/>
      <point x="612" y="-255" type="curve" smooth="yes"/>
      <point x="610" y="-362"/>
      <point x="680" y="-450"/>
    </contour>
    <component base="u"/>
  </outline>
</glyph>
<glyph name="tildecomb" format="2">
  <unicode hex="0303"/>
  <anchor x="352" y="960" name="_top"/>
  <anchor x="352" y="1344" name="top"/>
  <outline>
    <contour>
      <point x="84" y="1216" type="line"/>
      <point x="112" y="1296"/>
      <point x="152" y="1340"/>
      <point x="208" y="1340" type="curve" smooth="yes"/>
      <point x="294" y="1340"/>
      <point x="386" y="1236"/>
      <point x="496" y="1236" type="curve" smooth="yes"/>
      <point x="580" y="1236"/>
      <point x="652" y="1302"/>
      <point x="694" y="1414" type="curve"/>
      <point x="620" y="1460" type="line"/>
      <point x="594" y="1382"/>
      <point x="552" y="1334"/>
      <point x="496" y="1334" type="curve" smooth="yes"/>
      <point x="410" y="1334"/>
      <point x="318" y="1440"/>
      <point x="208" y="1440" type="curve" smooth="yes"/>
      <point x="118" y="1440"/>
      <point x="50" y="1366"/>
      <point x="10" y="1260" type="curve"/>
    </contour>
  </outline>
</glyph>
<glyph name="hookabovecomb" format="2">
  <unicode hex="0309"/>
  <anchor x="234" y="960" name="_top"/>
  <outline>
    <contour>
      <point x="174" y="1170" type="curve"/>
      <point x="266" y="1170" type="line"/>
      <point x="232" y="1248"/>
      <point x="246" y="1274"/>
      <point x="334" y="1314" type="curve" smooth="yes"/>
      <point x="442" y="1362"/>
      <point x="476" y="1396"/>
      <point x="476" y="1474" type="curve" smooth="yes"/>
      <point x="476" y="1566"/>
      <point x="374" y="1634"/>
      <point x="236" y="1634" type="curve" smooth="yes"/>
      <point x="156" y="1634"/>
      <point x="76" y="1618"/>
      <point x="10" y="1586" type="curve"/>
      <point x="44" y="1508" type="line"/>
      <point x="94" y="1534"/>
      <point x="166" y="1550"/>
      <point x="230" y="1550" type="curve" smooth="yes"/>
      <point x="316" y="1550"/>
      <point x="380" y="1514"/>
      <point x="380" y="1456" type="curve" smooth="yes"/>
      <point x="380" y="1410"/>
      <point x="358" y="1396"/>
      <point x="264" y="1360" type="curve" smooth="yes"/>
      <point x="156" y="1318"/>
      <point x="130" y="1260"/>
    </contour>
  </outline>
</glyph>
<glyph name="caroncomb" format="2">
  <unicode hex="030C"/>
  <anchor x="324" y="960" name="_top"/>
  <outline>
    <contour>
      <point x="256" y="1170" type="line"/>
      <point x="378" y="1170" type="line"/>
      <point x="638" y="1504" type="line"/>
      <point x="516" y="1504" type="line"/>
      <point x="318" y="1248" type="line"/>
      <point x="130" y="1504" type="line"/>
      <point x="10" y="1504" type="line"/>
    </contour>
  </outline>
</glyph>
<glyph name="dblgravecomb" format="2">
  <unicode hex="030F"/>
  <anchor x="428" y="960" name="_top"/>
  <outline>
    <contour>
      <point x="544" y="1170" type="line"/>
      <point x="652" y="1170" type="line"/>
      <point x="470" y="1504" type="line"/>
      <point x="350" y="1504" type="line"/>
    </contour>
    <contour>
      <point x="204" y="1170" type="line"/>
      <point x="312" y="1170" type="line"/>
      <point x="130" y="1504" type="line"/>
      <point x="10" y="1504" type="line"/>
    </contour>
  </outline>
</glyph>
<glyph name="commaturnedabovecomb" format="2">
  <unicode hex="0312"/>
  <anchor x="108" y="960" name="_top"/>
  <outline>
    <contour>
      <point x="110" y="1244" type="curve" smooth="yes"/>
      <point x="162" y="1244"/>
      <point x="202" y="1282"/>
      <point x="202" y="1330" type="curve" smooth="yes"/>
      <point x="202" y="1388"/>
      <point x="160" y="1426"/>
      <point x="104" y="1424" type="curve"/>
      <point x="112" y="1470"/>
      <point x="182" y="1524"/>
      <point x="252" y="1564" type="curve"/>
      <point x="200" y="1620" type="line"/>
      <point x="78" y="1542"/>
      <point x="10" y="1452"/>
      <point x="10" y="1356" type="curve" smooth="yes"/>
      <point x="10" y="1288"/>
      <point x="50" y="1244"/>
    </contour>
  </outline>
</glyph>
<glyph name="horncomb" format="2">
  <unicode hex="031B"/>
  <anchor x="396" y="960" name="_horn"/>
  <outline>
    <contour>
      <point x="416" y="842" type="curve" smooth="yes"/>
      <point x="544" y="842"/>
      <point x="608" y="916"/>
      <point x="608" y="1004" type="curve" smooth="yes"/>
      <point x="608" y="1056"/>
      <point x="584" y="1116"/>
      <point x="532" y="1172" type="curve"/>
      <point x="440" y="1130" type="line"/>
      <point x="482" y="1082"/>
      <point x="502" y="1036"/>
      <point x="502" y="1002" type="curve" smooth="yes"/>
      <point x="502" y="958"/>
      <point x="472" y="926"/>
      <point x="396" y="926" type="curve" smooth="yes"/>
      <point x="326" y="926"/>
      <point x="170" y="990"/>
      <point x="10" y="990" type="curve"/>
      <point x="10" y="922" type="line"/>
      <point x="180" y="922"/>
      <point x="322" y="842"/>
    </contour>
  </outline>
</glyph>
<glyph name="dieresisbelowcomb" format="2">
  <unicode hex="0324"/>
  <anchor x="286" y="0" name="_bottom"/>
  <outline>
    <contour>
      <point x="468" y="-390" type="curve" smooth="yes"/>
      <point x="520" y="-390"/>
      <point x="562" y="-348"/>
      <point x="562" y="-296" type="curve" smooth="yes"/>
      <point x="562" y="-244"/>
      <point x="520" y="-202"/>
      <point x="468" y="-202" type="curve" smooth="yes"/>
      <point x="416" y="-202"/>
      <point x="374" y="-244"/>
      <point x="374" y="-296" type="curve" smooth="yes"/>
      <point x="374" y="-348"/>
      <point x="416" y="-390"/>
    </contour>
    <contour>
      <point x="104" y="-390" type="curve" smooth="yes"/>
      <point x="156" y="-390"/>
      <point x="198" y="-348"/>
      <point x="198" y="-296" type="curve" smooth="yes"/>
      <point x="198" y="-244"/>
      <point x="156" y="-202"/>
      <point x="104" y="-202" type="curve" smooth="yes"/>
      <point x="52" y="-202"/>
      <point x="10" y="-244"/>
      <point x="10" y="-296" type="curve" smooth="yes"/>
      <point x="10" y="-348"/>
      <point x="52" y="-390"/>
    </contour>
  </outline>
</glyph>
<glyph name="commaaccentcomb" format="2">
  <unicode hex="0326"/>
  <anchor x="159" y="0" name="_bottom"/>
  <outline>
    <contour>
      <point x="64" y="-653" type="line"/>
      <point x="190" y="-583"/>
      <point x="264" y="-486"/>
      <point x="264" y="-400" type="curve" smooth="yes"/>
      <point x="264" y="-327"/>
      <point x="222" y="-284"/>
      <point x="158" y="-284" type="curve" smooth="yes"/>
      <point x="101" y="-284"/>
      <point x="59" y="-322"/>
      <point x="59" y="-372" type="curve" smooth="yes"/>
      <point x="59" y="-423"/>
      <point x="105" y="-460"/>
      <point x="164" y="-456" type="curve"/>
      <point x="151" y="-501"/>
      <point x="86" y="-554"/>
      <point x="10" y="-591" type="curve"/>
    </contour>
  </outline>
</glyph>
<glyph name="cedillacomb" format="2">
  <unicode hex="0327"/>
  <anchor x="230" y="0" name="_bottom"/>
  <outline>
    <contour>
      <point x="214" y="-450" type="curve" smooth="yes"/>
      <point x="308" y="-450"/>
      <point x="448" y="-402"/>
      <point x="448" y="-266" type="curve" smooth="yes"/>
      <point x="448" y="-160"/>
      <point x="354" y="-102"/>
      <point x="228" y="-94" type="curve"/>
      <point x="268" y="40" type="line"/>
      <point x="186" y="40" type="line"/>
      <point x="132" y="-126" type="line"/>
      <point x="166" y="-186" type="line"/>
      <point x="252" y="-174"/>
      <point x="340" y="-200"/>
      <point x="340" y="-270" type="curve" smooth="yes"/>
      <point x="340" y="-336"/>
      <point x="270" y="-360"/>
      <point x="210" y="-360" type="curve" smooth="yes"/>
      <point x="146" y="-360"/>
      <point x="72" y="-336"/>
      <point x="48" y="-308" type="curve"/>
      <point x="10" y="-394" type="line"/>
      <point x="66" y="-430"/>
      <point x="134" y="-450"/>
    </contour>
  </outline>
</glyph>
<glyph name="macronbelowcomb" format="2">
  <unicode hex="0331"/>
  <anchor x="298" y="0" name="_bottom"/>
  <outline>
    <contour>
      <point x="10" y="-374" type="line"/>
      <point x="586" y="-374" type="line"/>
      <point x="586" y="-270" type="line"/>
      <point x="10" y="-270" type="line"/>
    </contour>
  </outline>
</glyph>
<glyph name="lowernumeral-greek" format="2">
  <advance width="420"/>
  <unicode hex="0375"/>
  <outline>
    <contour>
      <point x="62" y="-420" type="line"/>
      <point x="172" y="-420" type="line"/>
      <point x="264" y="-12" type="line"/>
      <point x="176" y="-12" type="line"/>
    </contour>
  </outline>
</glyph>
<glyph name="dieresistonos" format="2">
  <advance width="664"/>
  <unicode hex="0385"/>
  <anchor x="322" y="960" name="_top"/>
  <outline>
    <contour>
      <point x="266" y="1216" type="line"/>
      <point x="362" y="1216" type="line"/>
      <point x="442" y="1504" type="line"/>
      <point x="334" y="1504" type="line"/>
    </contour>
    <contour>
      <point x="104" y="1162" type="curve" smooth="yes"/>
      <point x="156" y="1162"/>
      <point x="198" y="1204"/>
      <point x="198" y="1256" type="curve" smooth="yes"/>
      <point x="198" y="1308"/>
      <point x="156" y="1350"/>
      <point x="104" y="1350" type="curve" smooth="yes"/>
      <point x="52" y="1350"/>
      <point x="10" y="1308"/>
      <point x="10" y="1256" type="curve" smooth="yes"/>
      <point x="10" y="1204"/>
      <point x="52" y="1162"/>
    </contour>
    <contour>
      <point x="560" y="1162" type="curve" smooth="yes"/>
      <point x="612" y="1162"/>
      <point x="654" y="1204"/>
      <point x="654" y="1256" type="curve" smooth="yes"/>
      <point x="654" y="1308"/>
      <point x="612" y="1350"/>
      <point x="560" y="1350" type="curve" smooth="yes"/>
      <point x="508" y="1350"/>
      <point x="466" y="1308"/>
      <point x="466" y="1256" type="curve" smooth="yes"/>
      <point x="466" y="1204"/>
      <point x="508" y="1162"/>
    </contour>
  </outline>
</glyph>
<glyph name="Lambda" format="2">
  <advance width="1278"/>
  <unicode hex="039B"/>
  <outline>
    <contour>
      <point x="41" y="0" type="line"/>
      <point x="171" y="0" type="line"/>
      <point x="625" y="1218" type="line"/>
      <point x="1103" y="0" type="line"/>
      <point x="1237" y="0" type="line"/>
      <point x="677" y="1400" type="line"/>
      <point x="577" y="1400" type="line"/>
    </contour>
  </outline>
</glyph>
<glyph name="Psi" format="2">
  <advance width="1518"/>
  <unicode hex="03A8"/>
  <outline>
    <contour>
      <point x="701" y="0" type="line"/>
      <point x="817" y="0" type="line"/>
      <point x="817" y="362" type="line"/>
      <point x="1176" y="370"/>
      <point x="1363" y="558"/>
      <point x="1363" y="965" type="curve" smooth="yes"/>
      <point x="1363" y="1100"/>
      <point x="1350" y="1249"/>
      <point x="1293" y="1420" type="curve"/>
      <point x="1179" y="1390" type="line"/>
      <point x="1234" y="1224"/>
      <point x="1249" y="1081"/>
      <point x="1249" y="965" type="curve" smooth="yes"/>
      <point x="1249" y="642"/>
      <point x="1114" y="485"/>
      <point x="817" y="470" type="curve"/>
      <point x="817" y="1400" type="line"/>
      <point x="701" y="1400" type="line"/>
      <point x="701" y="470" type="line"/>
      <point x="405" y="485"/>
      <point x="269" y="640"/>
      <point x="269" y="965" type="curve" smooth="yes"/>
      <point x="269" y="1081"/>
      <point x="284" y="1224"/>
      <point x="339" y="1390" type="curve"/>
      <point x="225" y="1420" type="line"/>
      <point x="168" y="1249"/>
      <point x="155" y="1099"/>
      <point x="155" y="965" type="curve" smooth="yes"/>
      <point x="155" y="559"/>
      <point x="341" y="370"/>
      <point x="701" y="362" type="curve"/>
    </contour>
  </outline>
</glyph>
<glyph name="gamma" format="2">
  <advance width="1028"/>
  <unicode hex="03B3"/>
  <outline>
    <contour>
      <point x="444" y="-420" type="line"/>
      <point x="556" y="-420" type="line"/>
      <point x="556" y="12" type="line"/>
      <point x="730" y="244"/>
      <point x="878" y="560"/>
      <point x="951" y="955" type="curve"/>
      <point x="831" y="980" type="line"/>
      <point x="773" y="593"/>
      <point x="631" y="302"/>
      <point x="494" y="104" type="curve"/>
      <point x="524" y="104" type="line"/>
      <point x="172" y="960" type="line"/>
      <point x="42" y="960" type="line"/>
      <point x="444" y="-6" type="line"/>
    </contour>
  </outline>
</glyph>
<glyph name="epsilon" format="2">
  <advance width="988"/>
  <unicode hex="03B5"/>
  <anchor x="460" y="960" name="top"/>
  <outline>
    <contour>
      <point x="516" y="-30" type="curve" smooth="yes"/>
      <point x="672" y="-30"/>
      <point x="806" y="6"/>
      <point x="924" y="86" type="curve"/>
      <point x="856" y="178" type="line"/>
      <point x="784" y="112"/>
      <point x="660" y="78"/>
      <point x="522" y="78" type="curve" smooth="yes"/>
      <point x="334" y="78"/>
      <point x="220" y="136"/>
      <point x="220" y="256" type="curve" smooth="yes"/>
      <point x="220" y="380"/>
      <point x="340" y="440"/>
      <point x="512" y="440" type="curve" smooth="yes"/>
      <point x="680" y="440" type="line"/>
      <point x="680" y="544" type="line"/>
      <point x="512" y="544" type="line" smooth="yes"/>
      <point x="356" y="544"/>
      <point x="240" y="612"/>
      <point x="240" y="722" type="curve" smooth="yes"/>
      <point x="240" y="842"/>
      <point x="378" y="880"/>
      <point x="530" y="880" type="curve" smooth="yes"/>
      <point x="648" y="880"/>
      <point x="746" y="858"/>
      <point x="822" y="808" type="curve"/>
      <point x="880" y="906" type="line"/>
      <point x="772" y="964"/>
      <point x="660" y="988"/>
      <point x="536" y="988" type="curve" smooth="yes"/>
      <point x="318" y="988"/>
      <point x="124" y="904"/>
      <point x="124" y="720" type="curve" smooth="yes"/>
      <point x="124" y="636"/>
      <point x="164" y="550"/>
      <point x="310" y="492" type="curve"/>
      <point x="148" y="436"/>
      <point x="100" y="354"/>
      <point x="100" y="250" type="curve" smooth="yes"/>
      <point x="100" y="54"/>
      <point x="270" y="-30"/>
    </contour>
  </outline>
</glyph>
<glyph name="zeta" format="2">
  <advance width="886"/>
  <unicode hex="03B6"/>
  <outline>
    <contour>
      <point x="749" y="-436" type="line"/>
      <point x="808" y="-316"/>
      <point x="833" y="-231"/>
      <point x="833" y="-156" type="curve" smooth="yes"/>
      <point x="833" y="209"/>
      <point x="211" y="94"/>
      <point x="211" y="460" type="curve" smooth="yes"/>
      <point x="211" y="723"/>
      <point x="533" y="1053"/>
      <point x="862" y="1344" type="curve"/>
      <point x="862" y="1440" type="line"/>
      <point x="118" y="1440" type="line"/>
      <point x="118" y="1336" type="line"/>
      <point x="702" y="1336" type="line"/>
      <point x="387" y="1051"/>
      <point x="90" y="751"/>
      <point x="90" y="458" type="curve" smooth="yes"/>
      <point x="90" y="16"/>
      <point x="721" y="85"/>
      <point x="721" y="-178" type="curve" smooth="yes"/>
      <point x="721" y="-229"/>
      <point x="707" y="-291"/>
      <point x="649" y="-400" type="curve"/>
    </contour>
  </outline>
</glyph>
<glyph name="psi" format="2">
  <advance width="1353"/>
  <unicode hex="03C8"/>
  <outline>
    <contour>
      <point x="622" y="-420" type="line"/>
      <point x="734" y="-420" type="line"/>
      <point x="734" y="0" type="line"/>
      <point x="1064" y="0"/>
      <point x="1238" y="203"/>
      <point x="1238" y="456" type="curve" smooth="yes"/>
      <point x="1238" y="642"/>
      <point x="1172" y="840"/>
      <point x="1046" y="993" type="curve"/>
      <point x="947" y="935" type="line"/>
      <point x="1060" y="804"/>
      <point x="1118" y="634"/>
      <point x="1118" y="456" type="curve" smooth="yes"/>
      <point x="1118" y="254"/>
      <point x="998" y="110"/>
      <point x="734" y="108" type="curve"/>
      <point x="734" y="1280" type="line"/>
      <point x="622" y="1280" type="line"/>
      <point x="622" y="108" type="line"/>
      <point x="340" y="120"/>
      <point x="262" y="280"/>
      <point x="262" y="588" type="curve" smooth="yes"/>
      <point x="262" y="960" type="line"/>
      <point x="150" y="960" type="line"/>
      <point x="150" y="554" type="line" smooth="yes"/>
      <point x="150" y="242"/>
      <point x="244" y="14"/>
      <point x="622" y="0" type="curve"/>
    </contour>
  </outline>
</glyph>
<glyph name="omega" format="2">
  <advance width="1526"/>
  <unicode hex="03C9"/>
  <anchor x="763" y="0" name="bottom"/>
  <anchor x="763" y="960" name="top"/>
  <outline>
    <contour>
      <point x="469" y="-30" type="curve" smooth="yes"/>
      <point x="593" y="-30"/>
      <point x="713" y="46"/>
      <point x="763" y="182" type="curve"/>
      <point x="813" y="46"/>
      <point x="933" y="-30"/>
      <point x="1057" y="-30" type="curve" smooth="yes"/>
      <point x="1289" y="-30"/>
      <point x="1411" y="186"/>
      <point x="1411" y="456" type="curve" smooth="yes"/>
      <point x="1411" y="642"/>
      <point x="1345" y="840"/>
      <point x="1219" y="993" type="curve"/>
      <point x="1120" y="935" type="line"/>
      <point x="1233" y="804"/>
      <point x="1291" y="634"/>
      <point x="1291" y="456" type="curve" smooth="yes"/>
      <point x="1291" y="238"/>
      <point x="1215" y="82"/>
      <point x="1047" y="80" type="curve" smooth="yes"/>
      <point x="882" y="78"/>
      <point x="823" y="212"/>
      <point x="823" y="418" type="curve" smooth="yes"/>
      <point x="823" y="694" type="line"/>
      <point x="703" y="694" type="line"/>
      <point x="703" y="418" type="line" smooth="yes"/>
      <point x="703" y="212"/>
      <point x="645" y="78"/>
      <point x="479" y="80" type="curve" smooth="yes"/>
      <point x="311" y="82"/>
      <point x="235" y="240"/>
      <point x="235" y="456" type="curve" smooth="yes"/>
      <point x="235" y="634"/>
      <point x="293" y="804"/>
      <point x="406" y="935" type="curve"/>
      <point x="307" y="993" type="line"/>
      <point x="181" y="840"/>
      <point x="115" y="642"/>
      <point x="115" y="456" type="curve" smooth="yes"/>
      <point x="115" y="186"/>
      <point x="237" y="-30"/>
    </contour>
  </outline>
</glyph>
<glyph name="Dje-cy" format="2">
  <advance width="1560"/>
  <unicode hex="0402"/>
  <outline>
    <contour>
      <point x="484" y="0" type="line"/>
      <point x="600" y="0" type="line"/>
      <point x="600" y="1292" type="line"/>
      <point x="1292" y="1292" type="line"/>
      <point x="1292" y="1400" type="line"/>
      <point x="70" y="1400" type="line"/>
      <point x="70" y="1292" type="line"/>
      <point x="484" y="1292" type="line"/>
    </contour>
    <contour>
      <point x="1078" y="-270" type="line"/>
      <point x="1352" y="-172"/>
      <point x="1480" y="78"/>
      <point x="1480" y="324" type="curve" smooth="yes"/>
      <point x="1480" y="676"/>
      <point x="1246" y="846"/>
      <point x="914" y="846" type="curve" smooth="yes"/>
      <point x="796" y="846"/>
      <point x="666" y="822"/>
      <point x="530" y="764" type="curve"/>
      <point x="528" y="656" type="line"/>
      <point x="660" y="712"/>
      <point x="786" y="736"/>
      <point x="914" y="736" type="curve" smooth="yes"/>
      <point x="1174" y="736"/>
      <point x="1364" y="620"/>
      <point x="1364" y="324" type="curve" smooth="yes"/>
      <point x="1364" y="120"/>
      <point x="1256" y="-92"/>
      <point x="1028" y="-184" type="curve"/>
    </contour>
  </outline>
</glyph>
<glyph name="Ii-cy" format="2">
  <advance width="1452"/>
  <unicode hex="0418"/>
  <anchor x="726" y="0" name="bottom"/>
  <anchor x="726" y="1400" name="top"/>
  <outline>
    <contour>
      <point x="200" y="0" type="line"/>
      <point x="300" y="0" type="line"/>
      <point x="1136" y="1196" type="line"/>
      <point x="1136" y="0" type="line"/>
      <point x="1252" y="0" type="line"/>
      <point x="1252" y="1400" type="line"/>
      <point x="1150" y="1400" type="line"/>
      <point x="316" y="208" type="line"/>
      <point x="316" y="1400" type="line"/>
      <point x="200" y="1400" type="line"/>
    </contour>
  </outline>
</glyph>
<glyph name="El-cy" format="2">
  <advance width="1456"/>
  <unicode hex="041B"/>
  <outline>
    <contour>
      <point x="124" y="-20" type="line"/>
      <point x="368" y="74"/>
      <point x="470" y="226"/>
      <point x="470" y="960" type="curve" smooth="yes"/>
      <point x="470" y="1292" type="line"/>
      <point x="1140" y="1292" type="line"/>
      <point x="1140" y="0" type="line"/>
      <point x="1256" y="0" type="line"/>
      <point x="1256" y="1400" type="line"/>
      <point x="354" y="1400" type="line"/>
      <point x="354" y="960" type="line" smooth="yes"/>
      <point x="354" y="292"/>
      <point x="286" y="162"/>
      <point x="64" y="88" type="curve"/>
    </contour>
  </outline>
</glyph>
<glyph name="Ia-cy" format="2">
  <advance width="1284"/>
  <unicode hex="042F"/>
  <anchor x="666" y="1400" name="top"/>
  <outline>
    <contour>
      <point x="100" y="0" type="line"/>
      <point x="244" y="0" type="line"/>
      <point x="716" y="614" type="line"/>
      <point x="968" y="614" type="line"/>
      <point x="968" y="0" type="line"/>
      <point x="1084" y="0" type="line"/>
      <point x="1084" y="1400" type="line"/>
      <point x="614" y="1400" type="line" smooth="yes"/>
      <point x="334" y="1400"/>
      <point x="160" y="1232"/>
      <point x="160" y="1018" type="curve" smooth="yes"/>
      <point x="160" y="774"/>
      <point x="312" y="632"/>
      <point x="578" y="616" type="curve"/>
    </contour>
    <contour>
      <point x="604" y="722" type="line" smooth="yes"/>
      <point x="380" y="722"/>
      <point x="276" y="840"/>
      <point x="276" y="1016" type="curve" smooth="yes"/>
      <point x="276" y="1186"/>
      <point x="406" y="1292"/>
      <point x="628" y="1292" type="curve" smooth="yes"/>
      <point x="968" y="1292" type="line"/>
      <point x="968" y="722" type="line"/>
    </contour>
  </outline>
</glyph>
<glyph name="be-cy" format="2">
  <advance width="1199"/>
  <unicode hex="0431"/>
  <outline>
    <contour>
      <point x="619" y="-30" type="curve" smooth="yes"/>
      <point x="911" y="-30"/>
      <point x="1109" y="202"/>
      <point x="1109" y="480" type="curve" smooth="yes"/>
      <point x="1109" y="758"/>
      <point x="915" y="990"/>
      <point x="633" y="990" type="curve" smooth="yes"/>
      <point x="435" y="990"/>
      <point x="297" y="892"/>
      <point x="213" y="744" type="curve"/>
      <point x="235" y="1014"/>
      <point x="305" y="1196"/>
      <point x="577" y="1258" type="curve" smooth="yes"/>
      <point x="1023" y="1358" type="line"/>
      <point x="999" y="1470" type="line"/>
      <point x="539" y="1366" type="line" smooth="yes"/>
      <point x="207" y="1290"/>
      <point x="105" y="1028"/>
      <point x="105" y="590" type="curve" smooth="yes"/>
      <point x="105" y="190"/>
      <point x="295" y="-30"/>
    </contour>
    <contour>
      <point x="613" y="78" type="curve" smooth="yes"/>
      <point x="393" y="78"/>
      <point x="237" y="234"/>
      <point x="237" y="480" type="curve" smooth="yes"/>
      <point x="237" y="726"/>
      <point x="393" y="882"/>
      <point x="613" y="882" type="curve" smooth="yes"/>
      <point x="833" y="882"/>
      <point x="989" y="726"/>
      <point x="989" y="480" type="curve" smooth="yes"/>
      <point x="989" y="234"/>
      <point x="833" y="78"/>
    </contour>
  </outline>
</glyph>
<glyph name="ze-cy" format="2">
  <advance width="1000"/>
  <unicode hex="0437"/>
  <anchor x="484" y="0" name="bottom"/>
  <anchor x="474" y="960" name="top"/>
  <outline>
    <contour>
      <point x="474" y="-20" type="curve" smooth="yes"/>
      <point x="726" y="-20"/>
      <point x="900" y="84"/>
      <point x="900" y="278" type="curve" smooth="yes"/>
      <point x="900" y="402"/>
      <point x="814" y="492"/>
      <point x="656" y="522" type="curve"/>
      <point x="790" y="556"/>
      <point x="864" y="628"/>
      <point x="864" y="738" type="curve" smooth="yes"/>
      <point x="864" y="900"/>
      <point x="714" y="992"/>
      <point x="486" y="992" type="curve" smooth="yes"/>
      <point x="342" y="992"/>
      <point x="198" y="942"/>
      <point x="114" y="868" type="curve"/>
      <point x="168" y="784" type="line"/>
      <point x="250" y="854"/>
      <point x="362" y="888"/>
      <point x="480" y="888" type="curve" smooth="yes"/>
      <point x="642" y="888"/>
      <point x="752" y="832"/>
      <point x="752" y="728" type="curve" smooth="yes"/>
      <point x="752" y="606"/>
      <point x="624" y="562"/>
      <point x="424" y="562" type="curve" smooth="yes"/>
      <point x="248" y="562" type="line"/>
      <point x="248" y="458" type="line"/>
      <point x="426" y="458" type="line" smooth="yes"/>
      <point x="658" y="458"/>
      <point x="788" y="402"/>
      <point x="788" y="280" type="curve" smooth="yes"/>
      <point x="788" y="138"/>
      <point x="664" y="84"/>
      <point x="472" y="84" type="curve" smooth="yes"/>
      <point x="354" y="84"/>
      <point x="232" y="110"/>
      <point x="140" y="182" type="curve"/>
      <point x="74" y="90" type="line"/>
      <point x="178" y="10"/>
      <point x="316" y="-20"/>
    </contour>
  </outline>
</glyph>
<glyph name="el-cy" format="2">
  <advance width="1154"/>
  <unicode hex="043B"/>
  <outline>
    <contour>
      <point x="98" y="-10" type="line"/>
      <point x="340" y="64"/>
      <point x="386" y="232"/>
      <point x="386" y="664" type="curve" smooth="yes"/>
      <point x="386" y="856" type="line"/>
      <point x="872" y="856" type="line"/>
      <point x="872" y="0" type="line"/>
      <point x="984" y="0" type="line"/>
      <point x="984" y="960" type="line"/>
      <point x="274" y="960" type="line"/>
      <point x="274" y="664" type="line" smooth="yes"/>
      <point x="274" y="290"/>
      <point x="254" y="150"/>
      <point x="50" y="98" type="curve"/>
    </contour>
  </outline>
</glyph>
<glyph name="em-cy" format="2">
  <advance width="1434"/>
  <unicode hex="043C"/>
  <outline>
    <contour>
      <point x="170" y="0" type="line"/>
      <point x="270" y="0" type="line"/>
      <point x="270" y="804" type="line"/>
      <point x="252" y="794" type="line"/>
      <point x="672" y="222" type="line"/>
      <point x="764" y="222" type="line"/>
      <point x="1172" y="792" type="line"/>
      <point x="1152" y="802" type="line"/>
      <point x="1152" y="0" type="line"/>
      <point x="1264" y="0" type="line"/>
      <point x="1264" y="960" type="line"/>
      <point x="1160" y="960" type="line"/>
      <point x="702" y="304" type="line"/>
      <point x="752" y="306" type="line"/>
      <point x="278" y="960" type="line"/>
      <point x="272" y="960" type="line"/>
      <point x="170" y="960" type="line"/>
    </contour>
  </outline>
</glyph>
<glyph name="en-cy" format="2">
  <advance width="1166"/>
  <unicode hex="043D"/>
  <anchor x="996" y="0" name="descender"/>
  <anchor x="582" y="960" name="top"/>
  <outline>
    <contour>
      <point x="170" y="0" type="line"/>
      <point x="282" y="0" type="line"/>
      <point x="282" y="460" type="line"/>
      <point x="884" y="460" type="line"/>
      <point x="884" y="0" type="line"/>
      <point x="996" y="0" type="line"/>
      <point x="996" y="960" type="line"/>
      <point x="884" y="960" type="line"/>
      <point x="884" y="564" type="line"/>
      <point x="282" y="564" type="line"/>
      <point x="282" y="960" type="line"/>
      <point x="170" y="960" type="line"/>
    </contour>
  </outline>
</glyph>
<glyph name="ef-cy" format="2">
  <advance width="1446"/>
  <unicode hex="0444"/>
  <outline>
    <contour>
      <point x="666" y="-420" type="line"/>
      <point x="778" y="-420" type="line"/>
      <point x="778" y="1440" type="line"/>
      <point x="666" y="1440" type="line"/>
    </contour>
    <contour>
      <point x="722" y="-26" type="curve" smooth="yes"/>
      <point x="1084" y="-26"/>
      <point x="1366" y="144"/>
      <point x="1366" y="480" type="curve" smooth="yes"/>
      <point x="1366" y="818"/>
      <point x="1086" y="986"/>
      <point x="722" y="986" type="curve" smooth="yes"/>
      <point x="360" y="986"/>
      <point x="80" y="818"/>
      <point x="80" y="480" type="curve" smooth="yes"/>
      <point x="80" y="144"/>
      <point x="360" y="-26"/>
    </contour>
    <contour>
      <point x="724" y="76" type="curve" smooth="yes"/>
      <point x="424" y="76"/>
      <point x="198" y="210"/>
      <point x="198" y="480" type="curve" smooth="yes"/>
      <point x="198" y="750"/>
      <point x="424" y="884"/>
      <point x="720" y="884" type="curve" smooth="yes"/>
      <point x="1018" y="884"/>
      <point x="1246" y="750"/>
      <point x="1246" y="480" type="curve" smooth="yes"/>
      <point x="1246" y="210"/>
      <point x="1026" y="76"/>
    </contour>
  </outline>
</glyph>
<glyph name="sha-cy" format="2">
  <advance width="1708"/>
  <unicode hex="0448"/>
  <anchor x="1538" y="0" name="descender"/>
  <outline>
    <contour>
      <point x="170" y="0" type="line"/>
      <point x="1538" y="0" type="line"/>
      <point x="1538" y="960" type="line"/>
      <point x="1426" y="960" type="line"/>
      <point x="1426" y="104" type="line"/>
      <point x="910" y="104" type="line"/>
      <point x="910" y="960" type="line"/>
      <point x="798" y="960" type="line"/>
      <point x="798" y="104" type="line"/>
      <point x="282" y="104" type="line"/>
      <point x="282" y="960" type="line"/>
      <point x="170" y="960" type="line"/>
    </contour>
  </outline>
</glyph>
<glyph name="yeru-cy" format="2">
  <advance width="1374"/>
  <unicode hex="044B"/>
  <anchor x="672" y="0" name="bottom"/>
  <anchor x="712" y="960" name="top"/>
  <outline>
    <contour>
      <point x="170" y="0" type="line"/>
      <point x="518" y="0" type="line" smooth="yes"/>
      <point x="750" y="0"/>
      <point x="910" y="112"/>
      <point x="910" y="306" type="curve" smooth="yes"/>
      <point x="910" y="502"/>
      <point x="768" y="616"/>
      <point x="538" y="616" type="curve" smooth="yes"/>
      <point x="256" y="616" type="line"/>
      <point x="256" y="512" type="line"/>
      <point x="532" y="512" type="line" smooth="yes"/>
      <point x="704" y="512"/>
      <point x="790" y="442"/>
      <point x="790" y="306" type="curve" smooth="yes"/>
      <point x="790" y="168"/>
      <point x="700" y="104"/>
      <point x="514" y="104" type="curve" smooth="yes"/>
      <point x="282" y="104" type="line"/>
      <point x="282" y="960" type="line"/>
      <point x="170" y="960" type="line"/>
    </contour>
    <contour>
      <point x="1092" y="0" type="line"/>
      <point x="1204" y="0" type="line"/>
      <point x="1204" y="960" type="line"/>
      <point x="1092" y="960" type="line"/>
    </contour>
  </outline>
</glyph>
<glyph name="ereversed-cy" format="2">
  <advance width="1002"/>
  <unicode hex="044D"/>
  <anchor x="442" y="0" name="bottom"/>
  <anchor x="442" y="960" name="top"/>
  <outline>
    <contour>
      <point x="422" y="-30" type="curve" smooth="yes"/>
      <point x="720" y="-30"/>
      <point x="922" y="172"/>
      <point x="922" y="492" type="curve" smooth="yes"/>
      <point x="922" y="790"/>
      <point x="724" y="990"/>
      <point x="438" y="990" type="curve" smooth="yes"/>
      <point x="317" y="990"/>
      <point x="177" y="946"/>
      <point x="98" y="874" type="curve"/>
      <point x="156" y="784" type="line"/>
      <point x="225" y="842"/>
      <point x="327" y="882"/>
      <point x="430" y="882" type="curve" smooth="yes"/>
      <point x="660" y="882"/>
      <point x="804" y="740"/>
      <point x="804" y="490" type="curve" smooth="yes"/>
      <point x="804" y="222"/>
      <point x="650" y="78"/>
      <point x="420" y="78" type="curve" smooth="yes"/>
      <point x="315" y="78"/>
      <point x="203" y="114"/>
      <point x="130" y="182" type="curve"/>
      <point x="64" y="92" type="line"/>
      <point x="153" y="2"/>
      <point x="293" y="-30"/>
    </contour>
    <contour>
      <point x="214" y="440" type="line"/>
      <point x="834" y="440" type="line"/>
      <point x="834" y="544" type="line"/>
      <point x="214" y="544" type="line"/>
    </contour>
  </outline>
</glyph>
<glyph name="iu-cy" format="2">
  <advance width="1634"/>
  <unicode hex="044E"/>
  <anchor x="872" y="960" name="top"/>
  <outline>
    <contour>
      <point x="170" y="0" type="line"/>
      <point x="282" y="0" type="line"/>
      <point x="280" y="460" type="line"/>
      <point x="624" y="460" type="line"/>
      <point x="624" y="564" type="line"/>
      <point x="280" y="564" type="line"/>
      <point x="282" y="960" type="line"/>
      <point x="170" y="960" type="line"/>
    </contour>
    <contour>
      <point x="1048" y="-30" type="curve" smooth="yes"/>
      <point x="1338" y="-30"/>
      <point x="1554" y="202"/>
      <point x="1554" y="480" type="curve" smooth="yes"/>
      <point x="1554" y="758"/>
      <point x="1338" y="990"/>
      <point x="1048" y="990" type="curve" smooth="yes"/>
      <point x="758" y="990"/>
      <point x="542" y="758"/>
      <point x="542" y="480" type="curve" smooth="yes"/>
      <point x="542" y="202"/>
      <point x="758" y="-30"/>
    </contour>
    <contour>
      <point x="1048" y="78" type="curve" smooth="yes"/>
      <point x="822" y="78"/>
      <point x="662" y="234"/>
      <point x="662" y="480" type="curve" smooth="yes"/>
      <point x="662" y="726"/>
      <point x="822" y="882"/>
      <point x="1048" y="882" type="curve" smooth="yes"/>
      <point x="1274" y="882"/>
      <point x="1434" y="726"/>
      <point x="1434" y="480" type="curve" smooth="yes"/>
      <point x="1434" y="234"/>
      <point x="1274" y="78"/>
    </contour>
  </outline>
</glyph>
<glyph name="ia-cy" format="2">
  <advance width="1074"/>
  <unicode hex="044F"/>
  <anchor x="586" y="960" name="top"/>
  <outline>
    <contour>
      <point x="110" y="0" type="line"/>
      <point x="254" y="0" type="line"/>
      <point x="586" y="390" type="line"/>
      <point x="818" y="390" type="line"/>
      <point x="818" y="492" type="line"/>
      <point x="532" y="492" type="line" smooth="yes"/>
      <point x="360" y="492"/>
      <point x="274" y="554"/>
      <point x="274" y="676" type="curve" smooth="yes"/>
      <point x="274" y="798"/>
      <point x="364" y="856"/>
      <point x="550" y="856" type="curve" smooth="yes"/>
      <point x="792" y="856" type="line"/>
      <point x="792" y="0" type="line"/>
      <point x="904" y="0" type="line"/>
      <point x="904" y="960" type="line"/>
      <point x="546" y="960" type="line" smooth="yes"/>
      <point x="314" y="960"/>
      <point x="154" y="856"/>
      <point x="154" y="676" type="curve" smooth="yes"/>
      <point x="154" y="504"/>
      <point x="266" y="386"/>
      <point x="526" y="388" type="curve"/>
      <point x="518" y="472" type="line"/>
    </contour>
  </outline>
</glyph>
<glyph name="nje-cy" format="2">
  <advance width="1684"/>
  <unicode hex="045A"/>
  <outline>
    <contour>
      <point x="170" y="0" type="line"/>
      <point x="282" y="0" type="line"/>
      <point x="282" y="960" type="line"/>
      <point x="170" y="960" type="line"/>
    </contour>
    <contour>
      <point x="864" y="0" type="line"/>
      <point x="1222" y="0" type="line" smooth="yes"/>
      <point x="1442" y="0"/>
      <point x="1594" y="104"/>
      <point x="1594" y="286" type="curve" smooth="yes"/>
      <point x="1594" y="470"/>
      <point x="1460" y="576"/>
      <point x="1242" y="576" type="curve" smooth="yes"/>
      <point x="260" y="576" type="line"/>
      <point x="260" y="472" type="line"/>
      <point x="894" y="472" type="line"/>
      <point x="936" y="472" type="line"/>
      <point x="1236" y="472" type="line" smooth="yes"/>
      <point x="1394" y="472"/>
      <point x="1474" y="408"/>
      <point x="1474" y="286" type="curve" smooth="yes"/>
      <point x="1474" y="162"/>
      <point x="1390" y="104"/>
      <point x="1218" y="104" type="curve" smooth="yes"/>
      <point x="976" y="104" type="line"/>
      <point x="976" y="960" type="line"/>
      <point x="864" y="960" type="line"/>
    </contour>
  </outline>
</glyph>
<glyph name="Yat-cy" format="2">
  <advance width="1420"/>
  <unicode hex="0462"/>
  <outline>
    <contour>
      <point x="400" y="0" type="line"/>
      <point x="850" y="0" type="line" smooth="yes"/>
      <point x="1158" y="0"/>
      <point x="1330" y="138"/>
      <point x="1330" y="396" type="curve" smooth="yes"/>
      <point x="1330" y="646"/>
      <point x="1136" y="796"/>
      <point x="852" y="796" type="curve" smooth="yes"/>
      <point x="472" y="796" type="line"/>
      <point x="472" y="688" type="line"/>
      <point x="866" y="688" type="line" smooth="yes"/>
      <point x="1082" y="688"/>
      <point x="1214" y="572"/>
      <point x="1214" y="392" type="curve" smooth="yes"/>
      <point x="1214" y="206"/>
      <point x="1086" y="108"/>
      <point x="864" y="108" type="curve" smooth="yes"/>
      <point x="516" y="108" type="line"/>
      <point x="518" y="1440" type="line"/>
      <point x="402" y="1440" type="line"/>
    </contour>
    <contour>
      <point x="46" y="1046" type="line"/>
      <point x="870" y="1046" type="line"/>
      <point x="870" y="1134" type="line"/>
      <point x="46" y="1134" type="line"/>
    </contour>
  </outline>
</glyph>
<glyph name="yat-cy" format="2">
  <advance width="1210"/>
  <unicode hex="0463"/>
  <outline>
    <contour>
      <point x="370" y="0" type="line"/>
      <point x="728" y="0" type="line" smooth="yes"/>
      <point x="960" y="0"/>
      <point x="1120" y="112"/>
      <point x="1120" y="306" type="curve" smooth="yes"/>
      <point x="1120" y="502"/>
      <point x="978" y="616"/>
      <point x="748" y="616" type="curve" smooth="yes"/>
      <point x="456" y="616" type="line"/>
      <point x="456" y="512" type="line"/>
      <point x="742" y="512" type="line" smooth="yes"/>
      <point x="914" y="512"/>
      <point x="1000" y="442"/>
      <point x="1000" y="306" type="curve" smooth="yes"/>
      <point x="1000" y="168"/>
      <point x="910" y="104"/>
      <point x="724" y="104" type="curve" smooth="yes"/>
      <point x="482" y="104" type="line"/>
      <point x="482" y="1440" type="line"/>
      <point x="370" y="1440" type="line"/>
    </contour>
    <contour>
      <point x="52" y="856" type="line"/>
      <point x="800" y="856" type="line"/>
      <point x="800" y="960" type="line"/>
      <point x="52" y="960" type="line"/>
    </contour>
  </outline>
</glyph>
<glyph name="Kabashkir-cy" format="2">
  <advance width="1598"/>
  <unicode hex="04A0"/>
  <anchor x="1416" y="0" name="descender"/>
  <anchor x="922" y="1400" name="top"/>
  <outline>
    <contour>
      <point x="484" y="1292" type="line"/>
      <point x="600" y="1400" type="line"/>
      <point x="70" y="1400" type="line"/>
      <point x="70" y="1292" type="line"/>
    </contour>
    <component base="Ka-cy" xOffset="284"/>
  </outline>
</glyph>
<glyph name="kabashkir-cy" format="2">
  <advance width="1226"/>
  <unicode hex="04A1"/>
  <outline>
    <contour>
      <point x="1026" y="0" type="line"/>
      <point x="1166" y="0" type="line"/>
      <point x="812" y="522" type="line"/>
      <point x="1094" y="960" type="line"/>
      <point x="974" y="960" type="line"/>
      <point x="688" y="518" type="line"/>
    </contour>
    <contour>
      <point x="370" y="0" type="line"/>
      <point x="482" y="0" type="line"/>
      <point x="480" y="460" type="line"/>
      <point x="766" y="460" type="line"/>
      <point x="766" y="564" type="line"/>
      <point x="480" y="564" type="line"/>
      <point x="482" y="960" type="line"/>
      <point x="370" y="960" type="line"/>
    </contour>
    <contour>
      <point x="52" y="856" type="line"/>
      <point x="370" y="856" type="line"/>
      <point x="482" y="960" type="line"/>
      <point x="52" y="960" type="line"/>
    </contour>
  </outline>
</glyph>
<glyph name="enghe-cy" format="2">
  <advance width="1544"/>
  <unicode hex="04A5"/>
  <outline>
    <contour>
      <point x="170" y="0" type="line"/>
      <point x="282" y="0" type="line"/>
      <point x="280" y="460" type="line"/>
      <point x="884" y="460" type="line"/>
      <point x="884" y="0" type="line"/>
      <point x="996" y="0" type="line"/>
      <point x="996" y="856" type="line"/>
      <point x="1486" y="856" type="line"/>
      <point x="1486" y="960" type="line"/>
      <point x="884" y="960" type="line"/>
      <point x="884" y="564" type="line"/>
      <point x="280" y="564" type="line"/>
      <point x="282" y="960" type="line"/>
      <point x="170" y="960" type="line"/>
    </contour>
  </outline>
</glyph>
<glyph name="Shha-cy" format="2">
  <advance width="1326"/>
  <unicode hex="04BA"/>
  <outline>
    <contour>
      <point x="200" y="0" type="line"/>
      <point x="316" y="0" type="line"/>
      <point x="316" y="702" type="line"/>
      <point x="436" y="730"/>
      <point x="550" y="748"/>
      <point x="708" y="748" type="curve" smooth="yes"/>
      <point x="956" y="748"/>
      <point x="1090" y="644"/>
      <point x="1090" y="358" type="curve" smooth="yes"/>
      <point x="1090" y="0" type="line"/>
      <point x="1206" y="0" type="line"/>
      <point x="1206" y="378" type="line" smooth="yes"/>
      <point x="1206" y="720"/>
      <point x="1034" y="866"/>
      <point x="708" y="866" type="curve" smooth="yes"/>
      <point x="562" y="866"/>
      <point x="444" y="846"/>
      <point x="316" y="812" type="curve"/>
      <point x="316" y="1400" type="line"/>
      <point x="200" y="1400" type="line"/>
    </contour>
  </outline>
</glyph>
<glyph name="Germandbls" format="2">
  <advance width="1388"/>
  <unicode hex="1E9E"/>
  <outline>
    <contour>
      <point x="892" y="-32" type="curve" smooth="yes"/>
      <point x="1148" y="-30"/>
      <point x="1318" y="94"/>
      <point x="1318" y="296" type="curve" smooth="yes"/>
      <point x="1318" y="572"/>
      <point x="862" y="590"/>
      <point x="862" y="814" type="curve" smooth="yes"/>
      <point x="862" y="914"/>
      <point x="922" y="1006"/>
      <point x="1154" y="1222" type="curve"/>
      <point x="1154" y="1318" type="line"/>
      <point x="1052" y="1374"/>
      <point x="922" y="1430"/>
      <point x="738" y="1430" type="curve" smooth="yes"/>
      <point x="414" y="1430"/>
      <point x="198" y="1210"/>
      <point x="198" y="908" type="curve" smooth="yes"/>
      <point x="198" y="0" type="line"/>
      <point x="314" y="0" type="line"/>
      <point x="314" y="908" type="line" smooth="yes"/>
      <point x="314" y="1160"/>
      <point x="466" y="1320"/>
      <point x="738" y="1320" type="curve" smooth="yes"/>
      <point x="874" y="1320"/>
      <point x="954" y="1282"/>
      <point x="1026" y="1250" type="curve"/>
      <point x="824" y="1050"/>
      <point x="732" y="950"/>
      <point x="732" y="804" type="curve" smooth="yes"/>
      <point x="732" y="498"/>
      <point x="1192" y="522"/>
      <point x="1192" y="282" type="curve" smooth="yes"/>
      <point x="1192" y="150"/>
      <point x="1080" y="76"/>
      <point x="904" y="75" type="curve" smooth="yes"/>
      <point x="812" y="74"/>
      <point x="728" y="90"/>
      <point x="664" y="112" type="curve"/>
      <point x="624" y="14" type="line"/>
      <point x="740" y="-24"/>
      <point x="834" y="-32"/>
    </contour>
  </outline>
</glyph>
<glyph name="quoteleft" format="2">
  <advance width="500"/>
  <unicode hex="2018"/>
  <outline>
    <contour>
      <point x="254" y="996" type="curve" smooth="yes"/>
      <point x="314" y="996"/>
      <point x="358" y="1038"/>
      <point x="358" y="1094" type="curve" smooth="yes"/>
      <point x="358" y="1152"/>
      <point x="310" y="1192"/>
      <point x="248" y="1188" type="curve"/>
      <point x="261" y="1241"/>
      <point x="331" y="1305"/>
      <point x="414" y="1351" type="curve"/>
      <point x="356" y="1420" type="line"/>
      <point x="218" y="1336"/>
      <point x="142" y="1222"/>
      <point x="142" y="1127" type="curve" smooth="yes"/>
      <point x="142" y="1043"/>
      <point x="186" y="996"/>
    </contour>
  </outline>
</glyph>
<glyph name="guilsinglleft" format="2">
  <advance width="576"/>
  <unicode hex="2039"/>
  <outline>
    <contour>
      <point x="401" y="110" type="line"/>
      <point x="468" y="169" type="line"/>
      <point x="184" y="498" type="line"/>
      <point x="468" y="827" type="line"/>
      <point x="401" y="886" type="line"/>
      <point x="60" y="498" type="line"/>
    </contour>
  </outline>
</glyph>
<glyph name="guilsinglright" format="2">
  <advance width="576"/>
  <unicode hex="203A"/>
  <outline>
    <contour>
      <point x="175" y="110" type="line"/>
      <point x="516" y="498" type="line"/>
      <point x="175" y="886" type="line"/>
      <point x="108" y="827" type="line"/>
      <point x="392" y="498" type="line"/>
      <point x="108" y="169" type="line"/>
    </contour>
  </outline>
</glyph>
<glyph name="fraction" format="2">
  <advance width="394"/>
  <unicode hex="2044"/>
  <outline>
    <contour>
      <point x="-160" y="-30" type="line"/>
      <point x="630" y="1390" type="line"/>
      <point x="554" y="1430" type="line"/>
      <point x="-236" y="16" type="line"/>
    </contour>
  </outline>
</glyph>
<glyph name="dong" format="2">
  <advance width="1296"/>
  <unicode hex="20AB"/>
  <anchor x="996" y="1204" name="bar"/>
  <anchor x="1108" y="1440" name="caron"/>
  <outline>
    <contour>
      <point x="108" y="-282" type="line"/>
      <point x="1108" y="-282" type="line"/>
      <point x="1108" y="-190" type="line"/>
      <point x="108" y="-190" type="line"/>
    </contour>
    <component base="dcroat" xOffset="24"/>
  </outline>
</glyph>
<glyph name="trademark" format="2">
  <advance width="1872"/>
  <unicode hex="2122"/>
  <anchor x="368" y="984" name="bar"/>
  <anchor x="368" y="560" name="bottom"/>
  <anchor x="368" y="1400" name="top"/>
  <outline>
    <contour>
      <point x="314" y="560" type="line"/>
      <point x="420" y="560" type="line"/>
      <point x="420" y="1304" type="line"/>
      <point x="674" y="1304" type="line"/>
      <point x="674" y="1400" type="line"/>
      <point x="60" y="1400" type="line"/>
      <point x="60" y="1304" type="line"/>
      <point x="314" y="1304" type="line"/>
    </contour>
    <contour>
      <point x="836" y="560" type="line"/>
      <point x="938" y="560" type="line"/>
      <point x="938" y="1210" type="line"/>
      <point x="1242" y="752" type="line"/>
      <point x="1326" y="752" type="line"/>
      <point x="1628" y="1210" type="line"/>
      <point x="1628" y="560" type="line"/>
      <point x="1730" y="560" type="line"/>
      <point x="1730" y="1400" type="line"/>
      <point x="1632" y="1400" type="line"/>
      <point x="1286" y="868" type="line"/>
      <point x="938" y="1400" type="line"/>
      <point x="836" y="1400" type="line"/>
    </contour>
  </outline>
</glyph>
<glyph name="leftArrow" format="2">
  <advance width="1800"/>
  <unicode hex="2190"/>
  <outline>
    <contour>
      <point x="600" y="170" type="line"/>
      <point x="668" y="238" type="line"/>
      <point x="220" y="684" type="line"/>
      <point x="1720" y="684" type="line"/>
      <point x="1720" y="780" type="line"/>
      <point x="220" y="780" type="line"/>
      <point x="668" y="1226" type="line"/>
      <point x="600" y="1294" type="line"/>
      <point x="38" y="732" type="line"/>
    </contour>
  </outline>
</glyph>
<glyph name="downArrow" format="2">
  <advance width="1800"/>
  <unicode hex="2193"/>
  <outline>
    <contour>
      <point x="900" y="-162" type="line"/>
      <point x="1462" y="400" type="line"/>
      <point x="1394" y="468" type="line"/>
      <point x="950" y="22" type="line"/>
      <point x="948" y="1520" type="line"/>
      <point x="852" y="1520" type="line"/>
      <point x="850" y="22" type="line"/>
      <point x="406" y="468" type="line"/>
      <point x="338" y="400" type="line"/>
    </contour>
  </outline>
</glyph>
<glyph name="southWestArrow" format="2">
  <advance width="1800"/>
  <unicode hex="2199"/>
  <outline>
    <contour>
      <point x="160" y="0" type="line"/>
      <point x="954" y="0" type="line"/>
      <point x="954" y="96" type="line"/>
      <point x="324" y="96" type="line"/>
      <point x="1552" y="1324" type="line"/>
      <point x="1484" y="1392" type="line"/>
      <point x="256" y="164" type="line"/>
      <point x="256" y="794" type="line"/>
      <point x="162" y="794" type="line"/>
    </contour>
  </outline>
</glyph>
<glyph name="minus" format="2">
  <advance width="1296"/>
  <unicode hex="2212"/>
  <outline>
    <contour>
      <point x="180" y="616" type="line"/>
      <point x="1116" y="616" type="line"/>
      <point x="1116" y="712" type="line"/>
      <point x="180" y="712" type="line"/>
    </contour>
  </outline>
</glyph>
<glyph name="divisionslash" format="2">
  <advance width="1296"/>
  <unicode hex="2215"/>
  <outline>
    <contour>
      <point x="291" y="-30" type="line"/>
      <point x="1081" y="1390" type="line"/>
      <point x="1005" y="1430" type="line"/>
      <point x="215" y="16" type="line"/>
    </contour>
  </outline>
</glyph>
<glyph name="leftanglebracket-math" format="2">
  <advance width="1296"/>
  <unicode hex="27E8"/>
  <outline>
    <contour>
      <point x="1010" y="-416" type="line"/>
      <point x="1084" y="-364" type="line"/>
      <point x="366" y="664" type="line"/>
      <point x="1084" y="1692" type="line"/>
      <point x="1010" y="1744" type="line"/>
      <point x="254" y="664" type="line"/>
    </contour>
  </outline>
</glyph>
<glyph name="rightanglebracket-math" format="2">
  <advance width="1296"/>
  <unicode hex="27E9"/>
  <outline>
    <contour>
      <point x="286" y="-416" type="line"/>
      <point x="1042" y="664" type="line"/>
      <point x="286" y="1744" type="line"/>
      <point x="212" y="1692" type="line"/>
      <point x="930" y="664" type="line"/>
      <point x="212" y="-364" type="line"/>
    </contour>
  </outline>
</glyph>
<glyph name="_part.Tse-cy" format="2">
  <advance width="1416"/>
  <anchor x="718" y="0" name="bottom"/>
  <anchor x="1216" y="0" name="descender"/>
  <outline>
    <contour>
      <point x="200" y="0" type="line"/>
      <point x="1216" y="0" type="line"/>
      <point x="1216" y="1400" type="line"/>
      <point x="1100" y="1400" type="line"/>
      <point x="1100" y="108" type="line"/>
      <point x="316" y="108" type="line"/>
      <point x="316" y="1400" type="line"/>
      <point x="200" y="1400" type="line"/>
    </contour>
  </outline>
</glyph>
<glyph name="_part.currencyBarHorizontalDoubl" format="2">
  <advance width="1296"/>
  <anchor x="648" y="1400" name="_top"/>
  <outline>
    <contour>
      <point x="60" y="792" type="line"/>
      <point x="1236" y="792" type="line"/>
      <point x="1236" y="892" type="line"/>
      <point x="60" y="892" type="line"/>
    </contour>
    <contour>
      <point x="60" y="484" type="line"/>
      <point x="1236" y="484" type="line"/>
      <point x="1236" y="584" type="line"/>
      <point x="60" y="584" type="line"/>
    </contour>
  </outline>
</glyph>
<glyph name="_part.currencyBarHorizontalSingle" format="2">
  <advance width="1296"/>
  <anchor x="648" y="1400" name="_top"/>
  <outline>
    <contour>
      <point x="60" y="638" type="line"/>
      <point x="1236" y="638" type="line"/>
      <point x="1236" y="738" type="line"/>
      <point x="60" y="738" type="line"/>
    </contour>
  </outline>
</glyph>
<glyph name="_part.cy-desc-uc-reversed-stem" format="2">
  <advance width="572"/>
  <anchor x="-232" y="0" name="_descender"/>
  <outline>
    <contour>
      <point x="-340" y="-360" type="line"/>
      <point x="-232" y="-360" type="line"/>
      <point x="-232" y="0" type="line"/>
      <point x="-212" y="20" type="line"/>
      <point x="-212" y="108" type="line"/>
      <point x="-340" y="108" type="line"/>
    </contour>
  </outline>
</glyph>
<glyph name="_part.cy-desc-uc" format="2">
  <advance width="572"/>
  <anchor x="-292" y="0" name="_descender"/>
  <outline>
    <contour>
      <point x="-180" y="-360" type="line"/>
      <point x="-72" y="-360" type="line"/>
      <point x="-72" y="108" type="line"/>
      <point x="-340" y="108" type="line"/>
      <point x="-340" y="0" type="line"/>
      <point x="-180" y="0" type="line"/>
    </contour>
  </outline>
</glyph>
<glyph name="_part.cy-descender-lc-center" format="2">
  <advance width="572"/>
  <anchor x="-152" y="0" name="_bottom"/>
  <outline>
    <contour>
      <point x="-204" y="-300" type="line"/>
      <point x="-100" y="-300" type="line"/>
      <point x="-100" y="28" type="line"/>
      <point x="-204" y="28" type="line"/>
    </contour>
  </outline>
</glyph>
<glyph name="_part.cy-descender-uc-center" format="2">
  <advance width="572"/>
  <anchor x="-152" y="0" name="_bottom"/>
  <outline>
    <contour>
      <point x="-206" y="-360" type="line"/>
      <point x="-98" y="-360" type="line"/>
      <point x="-98" y="28" type="line"/>
      <point x="-206" y="28" type="line"/>
    </contour>
  </outline>
</glyph>
<glyph name="_part.dollar" format="2">
  <advance width="1296"/>
  <anchor x="654" y="0" name="bottom"/>
  <anchor x="666" y="1400" name="top"/>
  <outline>
    <contour>
      <point x="654" y="-30" type="curve" smooth="yes"/>
      <point x="958" y="-30"/>
      <point x="1122" y="128"/>
      <point x="1122" y="360" type="curve" smooth="yes"/>
      <point x="1122" y="556"/>
      <point x="1004" y="662"/>
      <point x="794" y="726" type="curve" smooth="yes"/>
      <point x="620" y="780" type="line" smooth="yes"/>
      <point x="406" y="846"/>
      <point x="320" y="914"/>
      <point x="320" y="1050" type="curve" smooth="yes"/>
      <point x="320" y="1228"/>
      <point x="458" y="1324"/>
      <point x="656" y="1324" type="curve" smooth="yes"/>
      <point x="786" y="1324"/>
      <point x="914" y="1282"/>
      <point x="1006" y="1208" type="curve"/>
      <point x="1071" y="1299" type="line"/>
      <point x="977" y="1378"/>
      <point x="834" y="1430"/>
      <point x="676" y="1430" type="curve" smooth="yes"/>
      <point x="404" y="1430"/>
      <point x="212" y="1284"/>
      <point x="212" y="1042" type="curve" smooth="yes"/>
      <point x="212" y="848"/>
      <point x="344" y="750"/>
      <point x="552" y="686" type="curve" smooth="yes"/>
      <point x="712" y="636" type="line" smooth="yes"/>
      <point x="932" y="568"/>
      <point x="1014" y="488"/>
      <point x="1014" y="352" type="curve" smooth="yes"/>
      <point x="1014" y="172"/>
      <point x="870" y="78"/>
      <point x="654" y="78" type="curve" smooth="yes"/>
      <point x="508" y="78"/>
      <point x="368" y="122"/>
      <point x="264" y="204" type="curve"/>
      <point x="199" y="107" type="line"/>
      <point x="310" y="17"/>
      <point x="484" y="-30"/>
    </contour>
  </outline>
</glyph>
<glyph name="_part.hryvnia" format="2">
  <advance width="1296"/>
  <anchor x="648" y="1400" name="top"/>
  <outline>
    <contour>
      <point x="616" y="-30" type="curve" smooth="yes"/>
      <point x="790" y="-30"/>
      <point x="974" y="22"/>
      <point x="1094" y="108" type="curve"/>
      <point x="1030" y="204" type="line"/>
      <point x="918" y="124"/>
      <point x="774" y="78"/>
      <point x="614" y="78" type="curve" smooth="yes"/>
      <point x="414" y="78"/>
      <point x="282" y="176"/>
      <point x="282" y="334" type="curve" smooth="yes"/>
      <point x="282" y="476"/>
      <point x="356" y="554"/>
      <point x="586" y="638" type="curve" smooth="yes"/>
      <point x="732" y="692" type="line" smooth="yes"/>
      <point x="940" y="768"/>
      <point x="1082" y="860"/>
      <point x="1082" y="1070" type="curve" smooth="yes"/>
      <point x="1082" y="1304"/>
      <point x="884" y="1430"/>
      <point x="622" y="1430" type="curve" smooth="yes"/>
      <point x="458" y="1430"/>
      <point x="310" y="1378"/>
      <point x="212" y="1298" type="curve"/>
      <point x="276" y="1208" type="line"/>
      <point x="374" y="1284"/>
      <point x="510" y="1326"/>
      <point x="646" y="1326" type="curve" smooth="yes"/>
      <point x="842" y="1326"/>
      <point x="976" y="1220"/>
      <point x="976" y="1068" type="curve" smooth="yes"/>
      <point x="976" y="922"/>
      <point x="906" y="860"/>
      <point x="676" y="776" type="curve" smooth="yes"/>
      <point x="514" y="716" type="line" smooth="yes"/>
      <point x="298" y="636"/>
      <point x="174" y="538"/>
      <point x="174" y="334" type="curve" smooth="yes"/>
      <point x="174" y="136"/>
      <point x="330" y="-30"/>
    </contour>
  </outline>
</glyph>
<glyph name="_part.hryvniaBase" format="2">
  <advance width="1196"/>
  <anchor x="596" y="1400" name="top"/>
  <outline>
    <contour>
      <point x="566" y="-30" type="curve" smooth="yes"/>
      <point x="740" y="-30"/>
      <point x="924" y="22"/>
      <point x="1044" y="108" type="curve"/>
      <point x="980" y="204" type="line"/>
      <point x="868" y="124"/>
      <point x="724" y="78"/>
      <point x="564" y="78" type="curve" smooth="yes"/>
      <point x="364" y="78"/>
      <point x="232" y="176"/>
      <point x="232" y="334" type="curve" smooth="yes"/>
      <point x="232" y="476"/>
      <point x="306" y="554"/>
      <point x="536" y="638" type="curve" smooth="yes"/>
      <point x="682" y="692" type="line" smooth="yes"/>
      <point x="918" y="782"/>
      <point x="1032" y="876"/>
      <point x="1032" y="1070" type="curve" smooth="yes"/>
      <point x="1032" y="1304"/>
      <point x="834" y="1430"/>
      <point x="572" y="1430" type="curve" smooth="yes"/>
      <point x="408" y="1430"/>
      <point x="260" y="1378"/>
      <point x="162" y="1298" type="curve"/>
      <point x="226" y="1208" type="line"/>
      <point x="324" y="1284"/>
      <point x="460" y="1326"/>
      <point x="596" y="1326" type="curve" smooth="yes"/>
      <point x="792" y="1326"/>
      <point x="926" y="1220"/>
      <point x="926" y="1068" type="curve" smooth="yes"/>
      <point x="926" y="922"/>
      <point x="854" y="864"/>
      <point x="626" y="776" type="curve" smooth="yes"/>
      <point x="464" y="716" type="line" smooth="yes"/>
      <point x="248" y="636"/>
      <point x="124" y="538"/>
      <point x="124" y="334" type="curve" smooth="yes"/>
      <point x="124" y="136"/>
      <point x="280" y="-30"/>
    </contour>
  </outline>
</glyph>
<glyph name="_part.ogonek" format="2">
  <advance width="2"/>
  <anchor x="-496" y="0" name="_ogonek"/>
  <outline>
    <contour>
      <point x="-656" y="-450" type="curve" smooth="yes"/>
      <point x="-600" y="-450"/>
      <point x="-543" y="-435"/>
      <point x="-494" y="-409" type="curve"/>
      <point x="-536" y="-313" type="line"/>
      <point x="-565" y="-329"/>
      <point x="-601" y="-340"/>
      <point x="-640" y="-340" type="curve" smooth="yes"/>
      <point x="-714" y="-340"/>
      <point x="-738" y="-291"/>
      <point x="-736" y="-229" type="curve" smooth="yes"/>
      <point x="-732" y="-105"/>
      <point x="-636" y="-38"/>
      <point x="-496" y="0" type="curve"/>
      <point x="-536" y="68" type="line"/>
      <point x="-704" y="25"/>
      <point x="-852" y="-86"/>
      <point x="-856" y="-255" type="curve" smooth="yes"/>
      <point x="-858" y="-362"/>
      <point x="-788" y="-450"/>
    </contour>
  </outline>
</glyph>
<glyph name="_part.tse-cy" format="2">
  <advance width="1152"/>
  <anchor x="576" y="0" name="bottom"/>
  <anchor x="982" y="0" name="descender"/>
  <outline>
    <contour>
      <point x="170" y="0" type="line"/>
      <point x="982" y="0" type="line"/>
      <point x="982" y="960" type="line"/>
      <point x="870" y="960" type="line"/>
      <point x="870" y="104" type="line"/>
      <point x="282" y="104" type="line"/>
      <point x="282" y="960" type="line"/>
      <point x="170" y="960" type="line"/>
    </contour>
  </outline>
</glyph>
<glyph name="_part.verticalstroke.case" format="2">
  <advance width="1314"/>
  <anchor x="510" y="780" name="_center"/>
  <outline>
    <contour>
      <point x="460" y="460" type="line"/>
      <point x="560" y="460" type="line"/>
      <point x="560" y="1100" type="line"/>
      <point x="460" y="1100" type="line"/>
    </contour>
  </outline>
</glyph>
<glyph name="_part.verticalstroke" format="2">
  <advance width="1314"/>
  <anchor x="510" y="780" name="_center"/>
  <outline>
    <contour>
      <point x="460" y="500" type="line"/>
      <point x="560" y="500" type="line"/>
      <point x="560" y="1060" type="line"/>
      <point x="460" y="1060" type="line"/>
    </contour>
  </outline>
</glyph>
<glyph name="acutecomb.case" format="2">
  <anchor x="74" y="1398" name="_top"/>
  <outline>
    <contour>
      <point x="10" y="1592" type="line"/>
      <point x="118" y="1592" type="line"/>
      <point x="320" y="1904" type="line"/>
      <point x="200" y="1904" type="line"/>
    </contour>
  </outline>
</glyph>
<glyph name="aogonek.ss01" format="2">
  <advance width="1254"/>
  <anchor x="596" y="0" name="bottom"/>
  <anchor x="1084" y="0" name="ogonek"/>
  <anchor x="596" y="960" name="top"/>
  <outline>
    <contour>
      <point x="924" y="-450" type="curve" smooth="yes"/>
      <point x="980" y="-450"/>
      <point x="1037" y="-435"/>
      <point x="1086" y="-409" type="curve"/>
      <point x="1044" y="-313" type="line"/>
      <point x="1015" y="-329"/>
      <point x="979" y="-340"/>
      <point x="940" y="-340" type="curve" smooth="yes"/>
      <point x="866" y="-340"/>
      <point x="842" y="-291"/>
      <point x="844" y="-229" type="curve" smooth="yes"/>
      <point x="848" y="-105"/>
      <point x="944" y="-38"/>
      <point x="1084" y="0" type="curve"/>
      <point x="1049.0" y="59.5" type="line"/>
      <point x="879.0" y="18.5"/>
      <point x="728.0" y="-89.5"/>
      <point x="724" y="-255" type="curve" smooth="yes"/>
      <point x="722" y="-362"/>
      <point x="792" y="-450"/>
    </contour>
    <component base="a.ss01"/>
  </outline>
</glyph>
<glyph name="brevecomb.case" format="2">
  <anchor x="348" y="1398" name="_top"/>
  <anchor x="348" y="1812" name="top"/>
  <outline>
    <contour>
      <point x="348" y="1582" type="curve" smooth="yes"/>
      <point x="542" y="1582"/>
      <point x="688" y="1718"/>
      <point x="682" y="1904" type="curve"/>
      <point x="578" y="1904" type="line"/>
      <point x="586" y="1768"/>
      <point x="494" y="1676"/>
      <point x="348" y="1676" type="curve" smooth="yes"/>
      <point x="202" y="1676"/>
      <point x="106" y="1768"/>
      <point x="112" y="1904" type="curve"/>
      <point x="10" y="1904" type="line"/>
      <point x="2" y="1718"/>
      <point x="146" y="1582"/>
    </contour>
  </outline>
</glyph>
<glyph name="breveinvertedcomb.case" format="2">
  <anchor x="348" y="1398" name="_top"/>
  <outline>
    <contour>
      <point x="10" y="1592" type="curve"/>
      <point x="112" y="1592" type="line"/>
      <point x="106" y="1728"/>
      <point x="202" y="1820"/>
      <point x="348" y="1820" type="curve" smooth="yes"/>
      <point x="492" y="1820"/>
      <point x="586" y="1728"/>
      <point x="578" y="1592" type="curve"/>
      <point x="682" y="1592" type="line"/>
      <point x="688" y="1776"/>
      <point x="544" y="1914"/>
      <point x="348" y="1914" type="curve" smooth="yes"/>
      <point x="152" y="1914"/>
      <point x="2" y="1784"/>
    </contour>
  </outline>
</glyph>
<glyph name="caroncomb.alt" format="2">
  <anchor x="-100" y="1440" name="_caron"/>
  <outline>
    <contour>
      <point x="10" y="1052" type="line"/>
      <point x="88" y="1052" type="line"/>
      <point x="130" y="1440" type="line"/>
      <point x="10" y="1440" type="line"/>
    </contour>
  </outline>
</glyph>
<glyph name="caroncomb.alt_case" format="2">
  <anchor x="-140" y="1440" name="_caron"/>
  <outline>
    <contour>
      <point x="10" y="992" type="line"/>
      <point x="96" y="992" type="line"/>
      <point x="142" y="1440" type="line"/>
      <point x="10" y="1440" type="line"/>
    </contour>
  </outline>
</glyph>
<glyph name="circumflexcomb.narrow" format="2">
  <anchor x="286" y="960" name="_top"/>
  <anchor x="286" y="1444" name="top"/>
  <anchor x="558" y="1224" name="top_right"/>
  <outline>
    <contour>
      <point x="10" y="1170" type="line"/>
      <point x="128" y="1170" type="line"/>
      <point x="290" y="1426" type="line"/>
      <point x="446" y="1170" type="line"/>
      <point x="564" y="1170" type="line"/>
      <point x="352" y="1504" type="line"/>
      <point x="234" y="1504" type="line"/>
    </contour>
  </outline>
</glyph>
<glyph name="dblgravecomb.case" format="2">
  <anchor x="440" y="1398" name="_top"/>
  <outline>
    <contour>
      <point x="670" y="1592" type="line"/>
      <point x="482" y="1904" type="line"/>
      <point x="360" y="1904" type="line"/>
      <point x="562" y="1592" type="line"/>
    </contour>
    <contour>
      <point x="320" y="1592" type="line"/>
      <point x="130" y="1904" type="line"/>
      <point x="10" y="1904" type="line"/>
      <point x="212" y="1592" type="line"/>
    </contour>
  </outline>
</glyph>
<glyph name="f.calt" format="2">
  <advance width="714"/>
  <outline>
    <contour>
      <point x="280" y="0" type="line"/>
      <point x="392" y="0" type="line"/>
      <point x="392" y="856" type="line"/>
      <point x="660" y="856" type="line"/>
      <point x="660" y="960" type="line"/>
      <point x="392" y="960" type="line"/>
      <point x="392" y="1234" type="line" smooth="yes"/>
      <point x="392" y="1318"/>
      <point x="414" y="1362"/>
      <point x="484" y="1362" type="curve" smooth="yes"/>
      <point x="510" y="1362"/>
      <point x="536" y="1356"/>
      <point x="561" y="1345" type="curve"/>
      <point x="592" y="1447" type="line"/>
      <point x="557" y="1460"/>
      <point x="515" y="1470"/>
      <point x="468" y="1470" type="curve" smooth="yes"/>
      <point x="351" y="1470"/>
      <point x="280" y="1401"/>
      <point x="280" y="1254" type="curve" smooth="yes"/>
    </contour>
    <contour>
      <point x="60" y="856" type="line"/>
      <point x="306" y="856" type="line"/>
      <point x="306" y="960" type="line"/>
      <point x="60" y="960" type="line"/>
    </contour>
  </outline>
</glyph>
<glyph name="four.dnom" format="2">
  <advance width="844"/>
  <outline>
    <contour>
      <point x="528" y="0" type="line"/>
      <point x="624" y="0" type="line"/>
      <point x="624" y="196" type="line"/>
      <point x="778" y="196" type="line"/>
      <point x="778" y="288" type="line"/>
      <point x="624" y="288" type="line"/>
      <point x="624" y="504" type="line"/>
      <point x="528" y="504" type="line"/>
      <point x="528" y="288" type="line"/>
      <point x="162" y="288" type="line"/>
      <point x="520" y="910" type="line"/>
      <point x="408" y="910" type="line"/>
      <point x="48" y="280" type="line"/>
      <point x="48" y="196" type="line"/>
      <point x="528" y="196" type="line"/>
    </contour>
  </outline>
</glyph>
<glyph name="gravecomb.case" format="2">
  <anchor x="242" y="1398" name="_top"/>
  <outline>
    <contour>
      <point x="212" y="1592" type="line"/>
      <point x="324" y="1592" type="line"/>
      <point x="136" y="1904" type="line"/>
      <point x="10" y="1904" type="line"/>
    </contour>
  </outline>
</glyph>
<glyph name="hardsign-cy.loclBGR" format="2">
  <advance width="1272"/>
  <outline>
    <contour>
      <point x="772" y="-20" type="curve" smooth="yes"/>
      <point x="1026" y="-20"/>
      <point x="1192" y="142"/>
      <point x="1192" y="342" type="curve" smooth="yes"/>
      <point x="1192" y="540"/>
      <point x="1022" y="704"/>
      <point x="786" y="704" type="curve" smooth="yes"/>
      <point x="648" y="704"/>
      <point x="510" y="642"/>
      <point x="458" y="550" type="curve"/>
      <point x="472" y="526" type="line"/>
      <point x="472" y="960" type="line"/>
      <point x="360" y="960" type="line"/>
      <point x="360" y="344" type="line" smooth="yes"/>
      <point x="360" y="120"/>
      <point x="534" y="-20"/>
    </contour>
    <contour>
      <point x="772" y="82" type="curve" smooth="yes"/>
      <point x="600" y="82"/>
      <point x="474" y="182"/>
      <point x="474" y="342" type="curve" smooth="yes"/>
      <point x="474" y="500"/>
      <point x="600" y="600"/>
      <point x="772" y="600" type="curve" smooth="yes"/>
      <point x="946" y="600"/>
      <point x="1074" y="500"/>
      <point x="1074" y="342" type="curve" smooth="yes"/>
      <point x="1074" y="184"/>
      <point x="946" y="82"/>
    </contour>
    <contour>
      <point x="42" y="856" type="line"/>
      <point x="380" y="856" type="line"/>
      <point x="472" y="960" type="line"/>
      <point x="42" y="960" type="line"/>
    </contour>
  </outline>
</glyph>
<glyph name="hookabovecomb.case" format="2">
  <anchor x="242" y="1398" name="_top"/>
  <outline>
    <contour>
      <point x="180" y="1592" type="curve"/>
      <point x="274" y="1592" type="line"/>
      <point x="238" y="1664"/>
      <point x="254" y="1688"/>
      <point x="344" y="1724" type="curve" smooth="yes"/>
      <point x="458" y="1770"/>
      <point x="492" y="1802"/>
      <point x="492" y="1874" type="curve" smooth="yes"/>
      <point x="492" y="1960"/>
      <point x="386" y="2024"/>
      <point x="244" y="2024" type="curve" smooth="yes"/>
      <point x="160" y="2024"/>
      <point x="78" y="2008"/>
      <point x="10" y="1978" type="curve"/>
      <point x="46" y="1904" type="line"/>
      <point x="94" y="1926"/>
      <point x="170" y="1942"/>
      <point x="240" y="1942" type="curve" smooth="yes"/>
      <point x="330" y="1942"/>
      <point x="396" y="1908"/>
      <point x="396" y="1856" type="curve" smooth="yes"/>
      <point x="396" y="1814"/>
      <point x="374" y="1802"/>
      <point x="274" y="1768" type="curve" smooth="yes"/>
      <point x="162" y="1730"/>
      <point x="136" y="1676"/>
    </contour>
  </outline>
</glyph>
<glyph name="hookabovecomb.narrow" format="2">
  <anchor x="210" y="960" name="_top"/>
  <outline>
    <contour>
      <point x="154" y="1170" type="curve"/>
      <point x="242" y="1170" type="line"/>
      <point x="212" y="1248"/>
      <point x="226" y="1274"/>
      <point x="302" y="1314" type="curve" smooth="yes"/>
      <point x="396" y="1362"/>
      <point x="426" y="1398"/>
      <point x="426" y="1474" type="curve" smooth="yes"/>
      <point x="426" y="1566"/>
      <point x="334" y="1634"/>
      <point x="212" y="1634" type="curve" smooth="yes"/>
      <point x="142" y="1634"/>
      <point x="68" y="1618"/>
      <point x="10" y="1586" type="curve"/>
      <point x="40" y="1508" type="line"/>
      <point x="84" y="1534"/>
      <point x="148" y="1550"/>
      <point x="202" y="1550" type="curve" smooth="yes"/>
      <point x="276" y="1550"/>
      <point x="332" y="1514"/>
      <point x="332" y="1456" type="curve" smooth="yes"/>
      <point x="332" y="1410"/>
      <point x="312" y="1396"/>
      <point x="232" y="1360" type="curve" smooth="yes"/>
      <point x="138" y="1318"/>
      <point x="114" y="1262"/>
    </contour>
  </outline>
</glyph>
<glyph name="horncomb.alt_case" format="2">
  <anchor x="118" y="1400" name="_horn"/>
  <outline>
    <contour>
      <point x="218" y="1188" type="curve" smooth="yes"/>
      <point x="348" y="1188"/>
      <point x="416" y="1278"/>
      <point x="416" y="1382" type="curve" smooth="yes"/>
      <point x="416" y="1444"/>
      <point x="390" y="1516"/>
      <point x="338" y="1580" type="curve"/>
      <point x="244" y="1540" type="line"/>
      <point x="294" y="1472"/>
      <point x="308" y="1414"/>
      <point x="308" y="1380" type="curve" smooth="yes"/>
      <point x="308" y="1316"/>
      <point x="276" y="1270"/>
      <point x="198" y="1270" type="curve" smooth="yes"/>
      <point x="150" y="1270"/>
      <point x="72" y="1300"/>
      <point x="10" y="1330" type="curve"/>
      <point x="10" y="1256" type="line"/>
      <point x="74" y="1222"/>
      <point x="154" y="1188"/>
    </contour>
  </outline>
</glyph>
<glyph name="horncomb.case" format="2">
  <anchor x="412" y="1400" name="_horn"/>
  <outline>
    <contour>
      <point x="552" y="1228" type="curve" smooth="yes"/>
      <point x="682" y="1228"/>
      <point x="750" y="1308"/>
      <point x="750" y="1402" type="curve" smooth="yes"/>
      <point x="750" y="1458"/>
      <point x="724" y="1522"/>
      <point x="672" y="1580" type="curve"/>
      <point x="578" y="1540" type="line"/>
      <point x="628" y="1480"/>
      <point x="642" y="1430"/>
      <point x="642" y="1400" type="curve" smooth="yes"/>
      <point x="642" y="1348"/>
      <point x="610" y="1310"/>
      <point x="532" y="1310" type="curve" smooth="yes"/>
      <point x="436" y="1310"/>
      <point x="226" y="1430"/>
      <point x="10" y="1430" type="curve"/>
      <point x="10" y="1362" type="line"/>
      <point x="238" y="1362"/>
      <point x="426" y="1228"/>
    </contour>
  </outline>
</glyph>
<glyph name="hungarumlautcomb.case" format="2">
  <anchor x="240" y="1398" name="_top"/>
  <outline>
    <contour>
      <point x="360" y="1592" type="line"/>
      <point x="468" y="1592" type="line"/>
      <point x="670" y="1904" type="line"/>
      <point x="550" y="1904" type="line"/>
    </contour>
    <contour>
      <point x="10" y="1592" type="line"/>
      <point x="118" y="1592" type="line"/>
      <point x="320" y="1904" type="line"/>
      <point x="200" y="1904" type="line"/>
    </contour>
  </outline>
</glyph>
<glyph name="macroncomb.case" format="2">
  <anchor x="308" y="1398" name="_top"/>
  <outline>
    <contour>
      <point x="10" y="1648" type="line"/>
      <point x="606" y="1648" type="line"/>
      <point x="606" y="1748" type="line"/>
      <point x="10" y="1748" type="line"/>
    </contour>
  </outline>
</glyph>
<glyph name="macroncomb.narrow" format="2">
  <anchor x="260" y="960" name="_top"/>
  <outline>
    <contour>
      <point x="10" y="1230" type="line"/>
      <point x="512" y="1230" type="line"/>
      <point x="512" y="1334" type="line"/>
      <point x="10" y="1334" type="line"/>
    </contour>
  </outline>
</glyph>
<glyph name="macroncomb.wide" format="2">
  <anchor x="422" y="960" name="_top"/>
  <outline>
    <contour>
      <point x="10" y="1230" type="line"/>
      <point x="836" y="1230" type="line"/>
      <point x="836" y="1334" type="line"/>
      <point x="10" y="1334" type="line"/>
    </contour>
  </outline>
</glyph>
<glyph name="one.dnom" format="2">
  <advance width="616"/>
  <outline>
    <contour>
      <point x="338" y="0" type="line"/>
      <point x="436" y="0" type="line"/>
      <point x="436" y="930" type="line"/>
      <point x="428" y="930" type="line"/>
      <point x="48" y="790" type="line"/>
      <point x="76" y="710" type="line"/>
      <point x="338" y="804" type="line"/>
    </contour>
  </outline>
</glyph>
<glyph name="one.numr" format="2">
  <advance width="616"/>
  <outline>
    <contour>
      <point x="338" y="490" type="line"/>
      <point x="436" y="490" type="line"/>
      <point x="436" y="1420" type="line"/>
      <point x="428" y="1420" type="line"/>
      <point x="48" y="1280" type="line"/>
      <point x="76" y="1200" type="line"/>
      <point x="338" y="1294" type="line"/>
    </contour>
  </outline>
</glyph>
<glyph name="ringcomb.case" format="2">
  <anchor x="286" y="1400" name="_top"/>
  <anchor x="286" y="1888" name="top"/>
  <outline>
    <contour>
      <point x="286" y="1462" type="curve" smooth="yes"/>
      <point x="436" y="1462"/>
      <point x="562" y="1578"/>
      <point x="562" y="1726" type="curve" smooth="yes"/>
      <point x="562" y="1874"/>
      <point x="436" y="1990"/>
      <point x="286" y="1990" type="curve" smooth="yes"/>
      <point x="138" y="1990"/>
      <point x="10" y="1874"/>
      <point x="10" y="1726" type="curve" smooth="yes"/>
      <point x="10" y="1578"/>
      <point x="138" y="1462"/>
    </contour>
    <contour>
      <point x="286" y="1554" type="curve" smooth="yes"/>
      <point x="184" y="1554"/>
      <point x="106" y="1626"/>
      <point x="106" y="1726" type="curve" smooth="yes"/>
      <point x="106" y="1826"/>
      <point x="184" y="1898"/>
      <point x="286" y="1898" type="curve" smooth="yes"/>
      <point x="388" y="1898"/>
      <point x="466" y="1826"/>
      <point x="466" y="1726" type="curve" smooth="yes"/>
      <point x="466" y="1626"/>
      <point x="388" y="1554"/>
    </contour>
  </outline>
</glyph>
<glyph name="strokeshortcomb.case" format="2">
  <anchor x="422" y="742" name="_bar"/>
  <outline>
    <contour>
      <point x="10" y="698" type="line"/>
      <point x="834" y="698" type="line"/>
      <point x="834" y="786" type="line"/>
      <point x="10" y="786" type="line"/>
    </contour>
  </outline>
</glyph>
<glyph name="three.dnom" format="2">
  <advance width="816"/>
  <outline>
    <contour>
      <point x="372" y="-20" type="curve" smooth="yes"/>
      <point x="568" y="-20"/>
      <point x="708" y="94"/>
      <point x="708" y="266" type="curve" smooth="yes"/>
      <point x="708" y="452"/>
      <point x="542" y="542"/>
      <point x="352" y="532" type="curve"/>
      <point x="666" y="826" type="line"/>
      <point x="666" y="910" type="line"/>
      <point x="88" y="910" type="line"/>
      <point x="88" y="818" type="line"/>
      <point x="532" y="818" type="line"/>
      <point x="208" y="518" type="line"/>
      <point x="242" y="446" type="line"/>
      <point x="280" y="454"/>
      <point x="320" y="458"/>
      <point x="354" y="458" type="curve" smooth="yes"/>
      <point x="504" y="458"/>
      <point x="602" y="388"/>
      <point x="602" y="270" type="curve" smooth="yes"/>
      <point x="602" y="152"/>
      <point x="510" y="76"/>
      <point x="366" y="76" type="curve" smooth="yes"/>
      <point x="280" y="76"/>
      <point x="184" y="106"/>
      <point x="122" y="156" type="curve"/>
      <point x="83" y="68" type="line"/>
      <point x="142" y="18"/>
      <point x="255" y="-20"/>
    </contour>
  </outline>
</glyph>
<glyph name="three.numr" format="2">
  <advance width="816"/>
  <outline>
    <contour>
      <point x="372" y="470" type="curve" smooth="yes"/>
      <point x="568" y="470"/>
      <point x="708" y="584"/>
      <point x="708" y="756" type="curve" smooth="yes"/>
      <point x="708" y="942"/>
      <point x="542" y="1032"/>
      <point x="352" y="1022" type="curve"/>
      <point x="666" y="1316" type="line"/>
      <point x="666" y="1400" type="line"/>
      <point x="88" y="1400" type="line"/>
      <point x="88" y="1308" type="line"/>
      <point x="532" y="1308" type="line"/>
      <point x="208" y="1008" type="line"/>
      <point x="242" y="936" type="line"/>
      <point x="280" y="944"/>
      <point x="320" y="948"/>
      <point x="354" y="948" type="curve" smooth="yes"/>
      <point x="504" y="948"/>
      <point x="602" y="878"/>
      <point x="602" y="760" type="curve" smooth="yes"/>
      <point x="602" y="642"/>
      <point x="510" y="566"/>
      <point x="366" y="566" type="curve" smooth="yes"/>
      <point x="280" y="566"/>
      <point x="184" y="596"/>
      <point x="122" y="646" type="curve"/>
      <point x="83" y="558" type="line"/>
      <point x="142" y="508"/>
      <point x="255" y="470"/>
    </contour>
  </outline>
</glyph>
<glyph name="tildecomb.case" format="2">
  <anchor x="364" y="1398" name="_top"/>
  <anchor x="364" y="1758" name="top"/>
  <outline>
    <contour>
      <point x="86" y="1632" type="line"/>
      <point x="116" y="1710"/>
      <point x="158" y="1748"/>
      <point x="214" y="1748" type="curve" smooth="yes"/>
      <point x="304" y="1748"/>
      <point x="400" y="1652"/>
      <point x="512" y="1652" type="curve" smooth="yes"/>
      <point x="600" y="1652"/>
      <point x="674" y="1714"/>
      <point x="718" y="1818" type="curve"/>
      <point x="642" y="1864" type="line"/>
      <point x="614" y="1792"/>
      <point x="572" y="1748"/>
      <point x="514" y="1748" type="curve" smooth="yes"/>
      <point x="424" y="1748"/>
      <point x="328" y="1846"/>
      <point x="214" y="1846" type="curve" smooth="yes"/>
      <point x="122" y="1846"/>
      <point x="52" y="1778"/>
      <point x="10" y="1676" type="curve"/>
    </contour>
  </outline>
</glyph>
<glyph name="tildecomb.narrow" format="2">
  <anchor x="308" y="960" name="_top"/>
  <anchor x="308" y="1344" name="top"/>
  <outline>
    <contour>
      <point x="76" y="1216" type="line"/>
      <point x="100" y="1292"/>
      <point x="134" y="1340"/>
      <point x="184" y="1340" type="curve" smooth="yes"/>
      <point x="258" y="1340"/>
      <point x="336" y="1236"/>
      <point x="432" y="1236" type="curve" smooth="yes"/>
      <point x="506" y="1236"/>
      <point x="570" y="1302"/>
      <point x="604" y="1414" type="curve"/>
      <point x="538" y="1460" type="line"/>
      <point x="516" y="1382"/>
      <point x="478" y="1334"/>
      <point x="432" y="1334" type="curve" smooth="yes"/>
      <point x="358" y="1334"/>
      <point x="280" y="1440"/>
      <point x="184" y="1440" type="curve" smooth="yes"/>
      <point x="104" y="1440"/>
      <point x="46" y="1366"/>
      <point x="10" y="1260" type="curve"/>
    </contour>
  </outline>
</glyph>
<glyph name="tonos.case" format="2">
  <advance width="428"/>
  <anchor x="406" y="1400" name="_topleft"/>
  <outline>
    <contour>
      <point x="138" y="1158" type="line"/>
      <point x="246" y="1158" type="line"/>
      <point x="366" y="1470" type="line"/>
      <point x="246" y="1470" type="line"/>
    </contour>
  </outline>
</glyph>
<glyph name="ve-cy.loclBGR" format="2">
  <advance width="1142"/>
  <outline>
    <contour>
      <point x="578" y="-30" type="curve" smooth="yes"/>
      <point x="860" y="-30"/>
      <point x="1040" y="142"/>
      <point x="1042" y="374" type="curve" smooth="yes"/>
      <point x="1044" y="558"/>
      <point x="938" y="708"/>
      <point x="766" y="758" type="curve"/>
      <point x="900" y="804"/>
      <point x="1004" y="958"/>
      <point x="1004" y="1108" type="curve" smooth="yes"/>
      <point x="1004" y="1328"/>
      <point x="844" y="1470"/>
      <point x="592" y="1470" type="curve" smooth="yes"/>
      <point x="318" y="1470"/>
      <point x="140" y="1282"/>
      <point x="140" y="990" type="curve" smooth="yes"/>
      <point x="140" y="394" type="line" smooth="yes"/>
      <point x="140" y="130"/>
      <point x="308" y="-30"/>
    </contour>
    <contour>
      <point x="578" y="78" type="curve" smooth="yes"/>
      <point x="374" y="78"/>
      <point x="252" y="206"/>
      <point x="252" y="428" type="curve" smooth="yes"/>
      <point x="252" y="990" type="line" smooth="yes"/>
      <point x="252" y="1232"/>
      <point x="368" y="1362"/>
      <point x="586" y="1362" type="curve" smooth="yes"/>
      <point x="774" y="1362"/>
      <point x="884" y="1262"/>
      <point x="884" y="1090" type="curve" smooth="yes"/>
      <point x="884" y="926"/>
      <point x="738" y="800"/>
      <point x="544" y="800" type="curve" smooth="yes"/>
      <point x="208" y="800" type="line"/>
      <point x="208" y="694" type="line"/>
      <point x="554" y="694" type="line" smooth="yes"/>
      <point x="782" y="694"/>
      <point x="920" y="574"/>
      <point x="920" y="374" type="curve" smooth="yes"/>
      <point x="920" y="192"/>
      <point x="804" y="78"/>
    </contour>
  </outline>
</glyph>
